<svg width="99" height="114" viewBox="0 0 99 114" fill="none" xmlns="http://www.w3.org/2000/svg">
<path d="M60.7332 40.0781C61.9676 40.0781 62.9776 39.0762 62.9776 37.8516C62.9776 36.627 61.9676 35.625 60.7332 35.625C59.4987 35.625 58.4888 36.627 58.4888 37.8516C58.4888 39.0762 59.4763 40.0781 60.7332 40.0781Z" fill="#88001B"/>
<path d="M38.2893 40.0781C39.5237 40.0781 40.5337 39.0762 40.5337 37.8516C40.5337 36.627 39.5237 35.625 38.2893 35.625C37.0549 35.625 36.0449 36.627 36.0449 37.8516C36.0449 39.0762 37.0325 40.0781 38.2893 40.0781Z" fill="#88001B"/>
<path d="M43.4963 55.3746C45.3815 56.2652 47.4015 56.7105 49.4888 56.7105C51.5312 56.7105 53.5287 56.2875 55.3691 55.4414C56.4913 54.9293 56.985 53.6156 56.4688 52.4801C55.9526 51.3668 54.6284 50.8769 53.4838 51.389C52.2269 51.9679 50.8803 52.2574 49.4663 52.2574C48.0299 52.2574 46.6608 51.9457 45.3815 51.3445C44.2593 50.8101 42.9127 51.3 42.3965 52.4133C41.9027 53.5265 42.3741 54.8625 43.4963 55.3746Z" fill="#88001B"/>
<path d="M99 90.3539C99 78.1078 84.9501 68.5113 72.8978 68.0438L66.7481 62.5664C74.2444 57.1559 78.7781 48.45 78.7781 39.1875V24.4922C78.7781 10.977 67.6683 0 54 0H45.0224C31.399 0 20.4239 10.9547 20.4239 24.4922V39.1875C20.4239 48.4277 24.9127 57.1113 32.2968 62.5219L26.1022 68.0438C14.0723 68.5113 0 78.0855 0 90.3539V111.773C0 112.998 1.00998 114 2.24439 114H96.7556C97.99 114 99 112.998 99 111.773V90.3539ZM44.5287 99.3047H54.4489L56.8055 109.547H42.1047L44.5287 99.3047ZM54.6509 94.8516H44.394L42.6658 89.5301L49.5112 86.1457L56.4913 89.6191L54.6509 94.8516ZM49.4888 79.4437L41.6783 67.0641C44.2145 67.7543 46.8404 68.1328 49.5112 68.1328C52.1372 68.1328 54.7631 67.7766 57.2768 67.0863L49.4888 79.4437ZM52.7207 82.7613L63.4938 65.6613L69.3067 70.8492L61.9227 87.3258L52.7207 82.7613ZM45.0224 4.45312H54C65.1771 4.45312 74.2893 13.4484 74.2893 24.4922V26.3402L70.0698 20.3285C69.6883 19.7941 69.0823 19.4379 68.409 19.3711C67.7357 19.3043 67.0848 19.5492 66.6135 20.0391C62.0574 24.648 56.783 26.7188 49.5112 26.7188C42.2394 26.7188 36.9426 24.648 32.3865 20.0168C31.9152 19.5492 31.2643 19.3043 30.591 19.3488C29.9177 19.4156 29.3117 19.7496 28.9302 20.3062L24.9127 26.1398V24.4922C24.9127 13.4484 33.9352 4.45312 45.0224 4.45312ZM24.9127 39.1875V34.0441L31.1521 24.982C36.1571 29.1902 42.0374 31.1719 49.5112 31.1719C56.985 31.1719 62.8878 29.1902 67.8703 24.9598L74.2893 34.1332V39.1875C74.2893 52.5246 63.3142 63.6797 49.5112 63.6797C35.7756 63.6797 24.9127 52.5469 24.9127 39.1875ZM35.5062 65.6391L46.2793 82.7391L37.0773 87.3035L29.6933 70.827L35.5062 65.6391ZM4.48878 90.3539C4.48878 81.1805 15.7332 73.2539 25.5411 72.5414L33.9352 91.2668C34.182 91.8234 34.6534 92.2465 35.2369 92.4469C35.8204 92.6473 36.4489 92.625 36.9875 92.3355L38.581 91.534L40.399 97.1672L37.4813 109.547H4.48878V90.3539ZM94.5112 109.547H61.4065L58.5786 97.2117L60.5312 91.623L61.99 92.3578C62.5511 92.625 63.1796 92.6695 63.7407 92.4691C64.3242 92.2687 64.7955 91.8234 65.0424 91.2891L73.4364 72.5637C83.2668 73.2762 94.4888 81.2027 94.4888 90.3762V109.547H94.5112Z" fill="#88001B"/>
<path d="M78.6882 99.3047H69.7107C68.4763 99.3047 67.4663 100.307 67.4663 101.531C67.4663 102.756 68.4763 103.758 69.7107 103.758H78.6882C79.9227 103.758 80.9326 102.756 80.9326 101.531C80.9326 100.307 79.9227 99.3047 78.6882 99.3047Z" fill="#88001B"/>
<path d="M87.531 99.3047C88.7654 99.3047 89.7754 100.307 89.7754 101.531C89.7754 102.756 88.7654 103.758 87.531 103.758C86.2966 103.758 85.2866 102.756 85.2866 101.531C85.2866 100.307 86.2966 99.3047 87.531 99.3047Z" fill="#88001B"/>
</svg>
