<svg width="203" height="32" viewBox="0 0 203 32" fill="none" xmlns="http://www.w3.org/2000/svg">
<path d="M8.40763 8.28617H4.07955L3.57037 9.49174C3.2359 10.2905 3.06867 10.7797 3.06867 10.9594C3.06867 11.0742 3.09862 11.1566 3.15853 11.2065C3.22342 11.2564 3.38317 11.2964 3.63776 11.3263L4.35661 11.4087V11.8804C3.87738 11.8455 3.33824 11.828 2.7392 11.828C2.02035 11.828 1.38886 11.8455 0.844727 11.8804V11.4087L1.06937 11.4012C1.41881 11.3912 1.64345 11.3563 1.74329 11.2964C1.84812 11.2315 1.95795 11.0767 2.07276 10.8321C2.4272 10.1132 2.78912 9.33699 3.15853 8.50332L5.21773 3.83829C5.76685 2.60027 6.14125 1.70171 6.34093 1.1426H6.85012L10.6391 9.956C10.8937 10.555 11.0634 10.917 11.1482 11.0418C11.2331 11.1616 11.3305 11.2489 11.4403 11.3038C11.5501 11.3538 11.7972 11.3887 12.1816 11.4087V11.8804C11.5326 11.8455 10.9136 11.828 10.3246 11.828C9.77544 11.828 9.04411 11.8455 8.13057 11.8804V11.4087L8.87189 11.3637C9.13646 11.3438 9.29371 11.3163 9.34363 11.2814C9.41851 11.2265 9.45595 11.1566 9.45595 11.0717C9.45595 10.9819 9.38107 10.7472 9.23131 10.3678L8.40763 8.28617ZM4.35661 7.67215H8.13057L6.24359 3.16437L4.35661 7.67215Z" fill="white"/>
<path d="M20.8527 4.78178V5.21608H20.3211C19.8718 5.21608 19.6347 5.34837 19.6097 5.61295C19.5897 5.87752 19.5798 6.78108 19.5798 8.32361L19.5872 10.0908C19.5922 10.6948 19.6022 11.0368 19.6172 11.1166C19.6322 11.1965 19.6896 11.2714 19.7894 11.3413C19.8893 11.4112 20.0665 11.4461 20.3211 11.4461H20.8527V11.8804C20.054 11.8455 19.3626 11.828 18.7785 11.828C18.2644 11.828 17.6828 11.8455 17.0338 11.8804V11.4461H17.573C17.9274 11.4461 18.1371 11.3687 18.202 11.214C18.2719 11.0542 18.3068 10.4053 18.3068 9.2671V6.7661L18.2993 5.68034L18.3068 5.28348C17.9024 5.23356 17.3084 5.20859 16.5246 5.20859C16.2251 5.20859 15.8233 5.22357 15.3191 5.25352C15.3191 7.47996 15.2517 8.96009 15.1169 9.69392C14.9821 10.4228 14.7001 10.9869 14.2707 11.3862C13.8464 11.7856 13.4396 11.9853 13.0502 11.9853C12.8905 11.9853 12.6958 11.9503 12.4661 11.8804L12.4886 11.5884C12.5036 11.4436 12.5111 11.3513 12.5111 11.3113C12.5111 11.2864 12.5036 11.2115 12.4886 11.0867C12.4786 11.0118 12.4711 10.902 12.4661 10.7572L12.6384 10.6749C12.843 10.9394 13.0926 11.0717 13.3872 11.0717C13.8414 11.0717 14.1684 10.7897 14.3681 10.2256C14.5678 9.66147 14.6676 8.42844 14.6676 6.52649C14.6676 5.98735 14.6427 5.63541 14.5927 5.47068C14.5428 5.30095 14.3257 5.21608 13.9413 5.21608H13.4021V4.78178C14.1559 4.81672 14.7849 4.83419 15.2891 4.83419H18.7785C19.2777 4.83419 19.9691 4.81672 20.8527 4.78178Z" fill="white"/>
<path d="M21.9684 11.8804V11.5435C22.3229 11.3937 22.525 11.2489 22.575 11.1092C22.6249 10.9644 22.6498 10.0783 22.6498 8.45091C22.6498 6.68873 22.6249 5.71029 22.575 5.5156C22.525 5.31592 22.3029 5.21608 21.9085 5.21608H21.3694V4.78178C22.0283 4.81672 22.6099 4.83419 23.1141 4.83419C23.6532 4.83419 24.3446 4.81672 25.1883 4.78178V5.21608H24.6566C24.2223 5.21608 23.9877 5.34088 23.9528 5.59048C23.9228 5.84009 23.9078 6.4591 23.9078 7.44751V7.75452C24.432 7.74454 24.7964 7.73955 25.0011 7.73955C26.0344 7.73955 26.8356 7.89679 27.4047 8.21129C27.9788 8.5208 28.2659 8.98755 28.2659 9.61155C28.2659 10.3204 27.9114 10.867 27.2026 11.2514C26.4987 11.6358 25.6326 11.828 24.6042 11.828H22.9194L22.5899 11.8505C22.3204 11.8704 22.1132 11.8804 21.9684 11.8804ZM23.9078 8.22627V9.92605C23.9078 10.3903 23.9178 10.8621 23.9378 11.3413C24.1275 11.3662 24.3022 11.3787 24.4619 11.3787C26.0844 11.3787 26.8956 10.8371 26.8956 9.75382C26.8956 9.22966 26.6959 8.84278 26.2965 8.59318C25.8972 8.33859 25.3655 8.21129 24.7016 8.21129L23.9078 8.22627Z" fill="white"/>
<path d="M34.5034 5.13372C34.4934 3.17685 34.4435 2.15099 34.3536 2.05614C34.2638 1.9563 34.0591 1.90638 33.7396 1.90638H33.1705V1.44212C34.1889 1.3273 34.9527 1.1401 35.4618 0.880518C35.5118 0.855558 35.5542 0.843079 35.5891 0.843079C35.669 0.843079 35.709 0.907975 35.709 1.03777C35.709 1.2025 35.699 1.53447 35.679 2.03367C35.674 2.13851 35.6715 2.25831 35.6715 2.3931V5.47068L36.6375 4.954C37.0568 4.72936 37.5111 4.61704 38.0003 4.61704C38.9438 4.61704 39.6651 4.92155 40.1643 5.53058C40.6635 6.13961 40.9131 6.8909 40.9131 7.78447C40.9131 8.83779 40.4838 9.80874 39.6252 10.6973C38.7716 11.5859 37.9429 12.0302 37.1392 12.0302C36.61 12.0302 36.1208 11.858 35.6715 11.5135V13.8947C35.6715 14.5287 35.7015 14.963 35.7614 15.1976C35.8213 15.4322 36.1133 15.5496 36.6375 15.5496H37.0119V15.9464C36.0534 15.9314 35.362 15.924 34.9377 15.924C34.4734 15.924 33.8844 15.9314 33.1705 15.9464V15.5496H33.7396C34.139 15.5496 34.3661 15.4497 34.421 15.25C34.4759 15.0553 34.5034 14.2716 34.5034 12.8988V11.1765L33.5075 11.7157C33.1181 11.9254 32.6863 12.0302 32.212 12.0302C31.2037 12.0302 30.4599 11.7132 29.9806 11.0792C29.5064 10.4402 29.2693 9.70141 29.2693 8.86275C29.2693 7.80943 29.6961 6.83849 30.5497 5.94991C31.4033 5.06133 32.242 4.61704 33.0657 4.61704C33.5799 4.61704 34.0591 4.78927 34.5034 5.13372ZM35.6715 10.4727C36.1757 10.9968 36.7698 11.2589 37.4537 11.2589C38.8414 11.2589 39.5353 10.3005 39.5353 8.38352C39.5353 7.42505 39.3406 6.68623 38.9513 6.16706C38.5619 5.6429 38.0078 5.38082 37.2889 5.38082C36.8147 5.38082 36.4253 5.49564 36.1208 5.72527C35.8213 5.9549 35.6715 6.28437 35.6715 6.71369V10.4727ZM34.5034 6.16706C33.9992 5.6429 33.4076 5.38082 32.7287 5.38082C31.336 5.38082 30.6396 6.33679 30.6396 8.24873C30.6396 9.25213 30.8417 10.0059 31.2461 10.5101C31.6554 11.0093 32.2046 11.2589 32.8935 11.2589C33.3677 11.2589 33.7546 11.1441 34.0541 10.9145C34.3536 10.6798 34.5034 10.3504 34.5034 9.92605V6.16706Z" fill="white"/>
<path d="M42.553 6.66876L42.5605 6.16706L42.553 5.65039L43.3692 5.18613C43.7386 4.97647 44.0606 4.8317 44.3352 4.75183C44.6147 4.67195 44.9117 4.63202 45.2262 4.63202C45.9151 4.63202 46.4692 4.78677 46.8886 5.09627C47.3129 5.40578 47.5675 5.80015 47.6524 6.27938C47.7123 6.63881 47.7497 7.52988 47.7647 8.95261C47.7747 10.2955 47.8046 11.0368 47.8545 11.1765C47.9044 11.3163 48.0292 11.3862 48.2289 11.3862H48.813V11.8804C48.2439 11.8455 47.847 11.828 47.6224 11.828C47.3428 11.828 46.9684 11.8455 46.4992 11.8804L46.5067 11.214C46.5067 10.9993 46.5042 10.7822 46.4992 10.5625L44.9492 11.7456C44.8094 11.8505 44.6721 11.9229 44.5373 11.9628C44.4025 12.0077 44.2153 12.0302 43.9757 12.0302C43.3318 12.0302 42.84 11.8729 42.5006 11.5584C42.1611 11.2389 41.9914 10.8121 41.9914 10.278C41.9914 9.77379 42.1112 9.3345 42.3508 8.96009C42.5954 8.5807 42.9399 8.30115 43.3842 8.12144C43.8335 7.94172 44.8718 7.7071 46.4992 7.41756C46.4892 6.78358 46.3494 6.30933 46.0799 5.99484C45.7404 5.60047 45.2562 5.40328 44.6272 5.40328C44.3876 5.40328 44.1629 5.43324 43.9533 5.49314C43.7436 5.55304 43.5489 5.6429 43.3692 5.76271C43.2244 6.11714 43.0921 6.4566 42.9723 6.78108L42.553 6.66876ZM46.4992 7.85935C45.1114 8.15888 44.2303 8.44092 43.8559 8.7055C43.4815 8.96509 43.2943 9.36944 43.2943 9.91856C43.2943 10.288 43.4016 10.585 43.6163 10.8096C43.831 11.0293 44.108 11.1391 44.4475 11.1391C44.8219 11.1391 45.1788 11.0343 45.5183 10.8246C45.8627 10.6149 46.1897 10.3029 46.4992 9.88861L46.4842 8.22627L46.4992 7.85935Z" fill="white"/>
<path d="M49.5693 8.84029L49.4719 8.73545C49.6217 8.35606 49.749 7.99414 49.8538 7.64969C50.5827 7.68463 51.1892 7.70211 51.6734 7.70211C52.0728 7.70211 52.8066 7.68463 53.8749 7.64969L53.9348 7.76201C53.7701 8.1414 53.6478 8.50083 53.5679 8.84029C52.884 8.79536 52.255 8.77289 51.6809 8.77289C51.0369 8.77289 50.3331 8.79536 49.5693 8.84029Z" fill="white"/>
<path d="M65.5862 2.84238L63.3622 7.46998C62.5285 9.2072 61.8446 10.7248 61.3105 12.0227H61.011C60.8263 11.5784 60.2971 10.4377 59.4235 8.60067L56.7428 3.05204V8.84029C56.7428 10.1881 56.7952 10.9544 56.9001 11.1391C57.0099 11.3188 57.3443 11.4087 57.9035 11.4087H58.1805V11.8804C57.4866 11.8455 56.9225 11.828 56.4882 11.828C56.1737 11.828 55.5472 11.8455 54.6087 11.8804V11.4087H55.0954C55.4249 11.4087 55.6446 11.3613 55.7544 11.2664C55.8642 11.1716 55.9316 10.9993 55.9566 10.7497C56.0215 10.0508 56.0539 9.29706 56.0539 8.48835V4.25013C56.0539 3.22677 56.0314 2.55035 55.9865 2.22087C55.9665 2.05115 55.8917 1.92135 55.7619 1.8315C55.6371 1.74164 55.385 1.69671 55.0056 1.69671H54.6087V1.22497C55.4773 1.25991 56.024 1.27738 56.2486 1.27738C56.5331 1.27738 56.9375 1.25991 57.4617 1.22497C58.0657 2.56782 58.7621 4.04795 59.5508 5.66536L61.5202 9.71638L63.3398 5.96489C63.9787 4.65199 64.7076 3.07201 65.5263 1.22497C66.1503 1.25991 66.5896 1.27738 66.8442 1.27738C67.1387 1.27738 67.6703 1.25991 68.4391 1.22497V1.69671H67.9524C67.5131 1.69671 67.2435 1.77409 67.1437 1.92884C67.0488 2.0786 67.0014 2.62523 67.0014 3.56872V9.04246C67.0014 10.2605 67.0513 10.9594 67.1512 11.1391C67.256 11.3188 67.543 11.4087 68.0123 11.4087H68.4391V11.8804C67.7452 11.8455 67.0813 11.828 66.4473 11.828C65.7484 11.828 65.0171 11.8455 64.2533 11.8804V11.4087H64.7475C65.1419 11.4087 65.379 11.3238 65.4589 11.1541C65.5437 10.9794 65.5862 10.238 65.5862 8.93014V2.84238Z" fill="white"/>
<path d="M70.6181 8.25622C70.6431 9.23965 70.8952 9.98595 71.3744 10.4951C71.8536 11.0043 72.4826 11.2589 73.2614 11.2589C73.6108 11.2589 73.9578 11.2015 74.3022 11.0867C74.6467 10.9719 74.9886 10.7997 75.3281 10.57L75.4554 10.6823L75.2158 11.3113C74.8014 11.5509 74.3746 11.7307 73.9353 11.8505C73.496 11.9703 73.0442 12.0302 72.58 12.0302C71.5666 12.0302 70.7479 11.7107 70.1239 11.0717C69.5049 10.4277 69.1954 9.55664 69.1954 8.4584C69.1954 7.61974 69.3701 6.8934 69.7196 6.27938C69.9492 5.87503 70.3735 5.50063 70.9925 5.15618C71.6115 4.81173 72.2131 4.63951 72.7971 4.63951C73.6807 4.63951 74.3796 4.89909 74.8938 5.41826C75.4129 5.93743 75.6725 6.66377 75.6725 7.59727L75.6575 8.03907C75.3281 8.11894 75.0136 8.17136 74.7141 8.19632C74.1799 8.23625 73.4386 8.25622 72.4901 8.25622H70.6181ZM70.6406 7.69462C71.4143 7.72956 72.268 7.74703 73.2015 7.74703C73.5759 7.74703 73.9378 7.72956 74.2872 7.69462V7.27529C74.2872 6.83599 74.1999 6.41916 74.0252 6.02479C73.9153 5.78018 73.7231 5.578 73.4486 5.41826C73.174 5.25352 72.857 5.17116 72.4976 5.17116C71.9385 5.17116 71.4917 5.37583 71.1572 5.78517C70.8228 6.19452 70.6506 6.831 70.6406 7.69462Z" fill="white"/>
<path d="M82.9883 7.67964C82.9783 6.46658 82.9559 5.75273 82.9209 5.53807C82.886 5.32341 82.6613 5.21608 82.247 5.21608H81.7079V4.78178C82.3668 4.81672 82.9484 4.83419 83.4526 4.83419C83.9917 4.83419 84.6831 4.81672 85.5268 4.78178V5.21608H84.9951C84.5458 5.21608 84.3087 5.35087 84.2838 5.62044C84.2638 5.88501 84.2538 6.78607 84.2538 8.32361L84.2688 10.0983C84.2738 10.6973 84.2838 11.0368 84.2987 11.1166C84.3137 11.1965 84.3686 11.2714 84.4635 11.3413C84.5633 11.4112 84.7405 11.4461 84.9951 11.4461H85.5268V11.8804C84.728 11.8455 84.0367 11.828 83.4526 11.828C82.9434 11.828 82.3618 11.8455 81.7079 11.8804V11.4461H82.247C82.6314 11.4461 82.8485 11.3588 82.8985 11.184C82.9484 11.0043 82.9734 10.6349 82.9734 10.0758C82.9734 9.63651 82.9783 9.03248 82.9883 8.26371L80.9666 8.23376L78.9298 8.26371L78.9448 10.6299C78.9448 10.9444 78.9598 11.1366 78.9897 11.2065C79.0247 11.2714 79.1045 11.3288 79.2293 11.3787C79.3541 11.4237 79.5014 11.4461 79.6711 11.4461H80.2028V11.8804C79.4041 11.8455 78.7127 11.828 78.1286 11.828C77.6194 11.828 77.0378 11.8455 76.3839 11.8804V11.4461H76.923C77.3074 11.4461 77.5271 11.3538 77.582 11.1691C77.6369 10.9844 77.6643 10.0783 77.6643 8.45091C77.6643 6.68873 77.6394 5.71029 77.5895 5.5156C77.5395 5.31592 77.3174 5.21608 76.923 5.21608H76.3839V4.78178C77.0428 4.81672 77.6244 4.83419 78.1286 4.83419C78.6677 4.83419 79.3591 4.81672 80.2028 4.78178V5.21608H79.6711C79.5114 5.21608 79.3616 5.24354 79.2219 5.29845C79.0821 5.34837 78.9997 5.42076 78.9747 5.5156C78.9498 5.61045 78.9373 6.00981 78.9373 6.71369L78.9298 7.67964C79.6087 7.73455 80.4674 7.76201 81.5057 7.76201C82.1497 7.76201 82.6439 7.73455 82.9883 7.67964Z" fill="white"/>
<path d="M87.6309 8.25622C87.6559 9.23965 87.908 9.98595 88.3872 10.4951C88.8664 11.0043 89.4954 11.2589 90.2742 11.2589C90.6236 11.2589 90.9706 11.2015 91.315 11.0867C91.6595 10.9719 92.0014 10.7997 92.3409 10.57L92.4682 10.6823L92.2285 11.3113C91.8142 11.5509 91.3874 11.7307 90.9481 11.8505C90.5088 11.9703 90.057 12.0302 89.5928 12.0302C88.5794 12.0302 87.7607 11.7107 87.1367 11.0717C86.5177 10.4277 86.2082 9.55664 86.2082 8.4584C86.2082 7.61974 86.3829 6.8934 86.7323 6.27938C86.962 5.87503 87.3863 5.50063 88.0053 5.15618C88.6243 4.81173 89.2258 4.63951 89.8099 4.63951C90.6935 4.63951 91.3924 4.89909 91.9066 5.41826C92.4257 5.93743 92.6853 6.66377 92.6853 7.59727L92.6703 8.03907C92.3409 8.11894 92.0264 8.17136 91.7268 8.19632C91.1927 8.23625 90.4514 8.25622 89.5029 8.25622H87.6309ZM87.6534 7.69462C88.4271 7.72956 89.2808 7.74703 90.2143 7.74703C90.5887 7.74703 90.9506 7.72956 91.3 7.69462V7.27529C91.3 6.83599 91.2127 6.41916 91.0379 6.02479C90.9281 5.78018 90.7359 5.578 90.4614 5.41826C90.1868 5.25352 89.8698 5.17116 89.5104 5.17116C88.9513 5.17116 88.5045 5.37583 88.17 5.78517C87.8356 6.19452 87.6633 6.831 87.6534 7.69462Z" fill="white"/>
<path d="M101.379 14.022H100.832V13.6775C100.832 13.2882 100.807 12.7815 100.757 12.1575C100.258 11.9378 99.4645 11.828 98.3762 11.828H96.6914C95.3535 11.828 94.4275 11.9079 93.9134 12.0676L93.4491 14.022H92.9773C93.0672 13.3431 93.1496 12.487 93.2245 11.4536C93.9333 11.234 94.42 10.7847 94.6846 10.1058C94.9542 9.42185 95.089 8.21878 95.089 6.49653C95.089 5.99234 95.0615 5.65288 95.0066 5.47816C94.9517 5.30344 94.737 5.21608 94.3626 5.21608H93.816V4.77429C94.5648 4.81423 95.1988 4.83419 95.718 4.83419H99.1475C99.5568 4.83419 100.301 4.81423 101.379 4.77429V5.21608H100.832C100.383 5.21608 100.146 5.34837 100.121 5.61295C100.101 5.87752 100.091 6.78108 100.091 8.32361C100.091 9.98096 100.101 10.882 100.121 11.0268C100.146 11.1716 100.218 11.2789 100.338 11.3488C100.458 11.4187 100.927 11.4536 101.746 11.4536C101.541 11.8829 101.419 12.739 101.379 14.022ZM98.7881 5.32092C98.5285 5.28597 97.8595 5.2685 96.7813 5.2685L95.718 5.32092V5.90498C95.718 7.2079 95.683 8.17635 95.6131 8.81033C95.5433 9.44432 95.391 9.97846 95.1564 10.4128C94.9217 10.8421 94.6422 11.1591 94.3177 11.3637L96.8112 11.3862C97.585 11.3862 98.2339 11.3787 98.7581 11.3637C98.818 10.6199 98.848 9.52669 98.848 8.084C98.848 8.0191 98.8355 7.58979 98.8105 6.79606C98.7906 6.06223 98.7806 5.69282 98.7806 5.68783L98.7881 5.32092Z" fill="white"/>
<path d="M105.677 11.8804V11.4461H106.111C106.546 11.4461 106.785 11.3438 106.83 11.1391C106.88 10.9344 106.905 10.2505 106.905 9.08739V8.03907H106.621C106.136 8.5183 105.315 9.56912 104.157 11.1915C103.932 11.506 103.763 11.7357 103.648 11.8804C103.303 11.8455 103.039 11.828 102.854 11.828C102.754 11.828 102.445 11.8455 101.926 11.8804V11.4386C102.16 11.4087 102.41 11.2814 102.674 11.0567C102.944 10.8321 103.418 10.2805 104.097 9.40189C104.811 8.47337 105.32 7.84438 105.625 7.51491C104.561 6.54146 103.837 5.91746 103.453 5.6429C103.074 5.36834 102.784 5.23106 102.584 5.23106H102.345V4.78927H103.76C103.91 4.93403 104.227 5.271 104.711 5.80015C105.43 6.5789 106.111 7.25033 106.755 7.81443H106.905V6.86345C106.905 6.08469 106.87 5.61794 106.8 5.46319C106.735 5.30844 106.523 5.23106 106.164 5.23106H105.625V4.78927C106.254 4.81922 106.88 4.83419 107.504 4.83419C108.143 4.83419 108.77 4.81922 109.384 4.78927V5.23106H108.844C108.49 5.23106 108.278 5.30844 108.208 5.46319C108.143 5.61295 108.111 6.0797 108.111 6.86345V7.81443H108.253C108.772 7.40508 109.456 6.73365 110.305 5.80015C110.784 5.27599 111.098 4.93903 111.248 4.78927H112.671V5.23106H112.424C112.249 5.23106 111.959 5.37583 111.555 5.66536C111.151 5.94991 110.427 6.56642 109.384 7.51491C109.803 7.97916 110.32 8.60816 110.934 9.40189C111.637 10.3154 112.112 10.877 112.356 11.0867C112.606 11.2914 112.848 11.4087 113.083 11.4386V11.8804C113.078 11.8804 112.973 11.8729 112.768 11.858C112.494 11.838 112.301 11.828 112.192 11.828C112.002 11.828 111.737 11.8455 111.398 11.8804C111.263 11.7107 111.078 11.4636 110.844 11.1391C109.591 9.38691 108.775 8.35356 108.395 8.03907H108.111V9.08739C108.111 10.2405 108.133 10.922 108.178 11.1316C108.223 11.3413 108.463 11.4461 108.897 11.4461H109.339V11.8804L108.934 11.8729C108.121 11.843 107.646 11.828 107.512 11.828C106.898 11.848 106.286 11.8654 105.677 11.8804Z" fill="white"/>
<path d="M123.558 4.79675V5.21608H123.027C122.577 5.21608 122.34 5.34837 122.315 5.61295C122.295 5.87752 122.285 6.80604 122.285 8.39849L122.293 9.71638C122.298 10.595 122.31 11.0767 122.33 11.1616C122.355 11.2414 122.43 11.3088 122.555 11.3637C122.685 11.4187 122.842 11.4461 123.027 11.4461H123.558V11.8804C122.765 11.8455 122.073 11.828 121.484 11.828C120.975 11.828 120.396 11.8455 119.747 11.8804V11.4461H120.279C120.618 11.4461 120.828 11.3762 120.908 11.2365C120.988 11.0967 121.027 10.4926 121.027 9.42435V6.0173L119.747 8.69053C119.243 9.73386 118.774 10.8121 118.339 11.9254H117.845C117.655 11.3962 117.426 10.8321 117.156 10.2331L116.684 9.16227L115.284 5.84508V9.34198L115.292 10.4727C115.297 10.8571 115.309 11.0842 115.329 11.1541C115.349 11.219 115.411 11.2839 115.516 11.3488C115.621 11.4137 115.786 11.4461 116.01 11.4461H116.542V11.8804C116.527 11.8804 116.387 11.8754 116.123 11.8654C115.519 11.8355 115.097 11.8205 114.857 11.8205C114.673 11.8205 114.196 11.8405 113.427 11.8804V11.4461H113.966C114.351 11.4461 114.57 11.3538 114.625 11.1691C114.68 10.9844 114.708 10.0783 114.708 8.45091C114.708 6.68873 114.683 5.71029 114.633 5.5156C114.583 5.31592 114.361 5.21608 113.966 5.21608H113.427V4.79675L113.831 4.81173C114.356 4.83669 114.628 4.84917 114.648 4.84917C114.653 4.84917 114.86 4.83919 115.269 4.81922C115.684 4.79426 115.893 4.78178 115.898 4.78178C115.913 4.78178 115.991 4.78677 116.13 4.79675C116.57 5.92495 116.979 6.92585 117.358 7.79945L118.467 10.3454L119.747 7.59727C120.241 6.52898 120.548 5.84508 120.668 5.54556L120.975 4.79675C121.31 4.82171 121.607 4.83419 121.866 4.83419C122.066 4.83419 122.63 4.82171 123.558 4.79675Z" fill="white"/>
<path d="M125.67 8.25622C125.695 9.23965 125.947 9.98595 126.426 10.4951C126.906 11.0043 127.535 11.2589 128.313 11.2589C128.663 11.2589 129.01 11.2015 129.354 11.0867C129.699 10.9719 130.041 10.7997 130.38 10.57L130.507 10.6823L130.268 11.3113C129.853 11.5509 129.427 11.7307 128.987 11.8505C128.548 11.9703 128.096 12.0302 127.632 12.0302C126.619 12.0302 125.8 11.7107 125.176 11.0717C124.557 10.4277 124.247 9.55664 124.247 8.4584C124.247 7.61974 124.422 6.8934 124.771 6.27938C125.001 5.87503 125.425 5.50063 126.044 5.15618C126.663 4.81173 127.265 4.63951 127.849 4.63951C128.733 4.63951 129.432 4.89909 129.946 5.41826C130.465 5.93743 130.724 6.66377 130.724 7.59727L130.709 8.03907C130.38 8.11894 130.066 8.17136 129.766 8.19632C129.232 8.23625 128.491 8.25622 127.542 8.25622H125.67ZM125.693 7.69462C126.466 7.72956 127.32 7.74703 128.253 7.74703C128.628 7.74703 128.99 7.72956 129.339 7.69462V7.27529C129.339 6.83599 129.252 6.41916 129.077 6.02479C128.967 5.78018 128.775 5.578 128.501 5.41826C128.226 5.25352 127.909 5.17116 127.55 5.17116C126.99 5.17116 126.544 5.37583 126.209 5.78517C125.875 6.19452 125.702 6.831 125.693 7.69462Z" fill="white"/>
<path d="M138.04 7.67964C138.03 6.46658 138.008 5.75273 137.973 5.53807C137.938 5.32341 137.713 5.21608 137.299 5.21608H136.76V4.78178C137.419 4.81672 138 4.83419 138.505 4.83419C139.044 4.83419 139.735 4.81672 140.579 4.78178V5.21608H140.047C139.598 5.21608 139.361 5.35087 139.336 5.62044C139.316 5.88501 139.306 6.78607 139.306 8.32361L139.321 10.0983C139.326 10.6973 139.336 11.0368 139.351 11.1166C139.366 11.1965 139.421 11.2714 139.515 11.3413C139.615 11.4112 139.792 11.4461 140.047 11.4461H140.579V11.8804C139.78 11.8455 139.089 11.828 138.505 11.828C137.995 11.828 137.414 11.8455 136.76 11.8804V11.4461H137.299C137.683 11.4461 137.9 11.3588 137.95 11.184C138 11.0043 138.025 10.6349 138.025 10.0758C138.025 9.63651 138.03 9.03248 138.04 8.26371L136.018 8.23376L133.982 8.26371L133.997 10.6299C133.997 10.9444 134.012 11.1366 134.042 11.2065C134.077 11.2714 134.156 11.3288 134.281 11.3787C134.406 11.4237 134.553 11.4461 134.723 11.4461H135.255V11.8804C134.456 11.8455 133.765 11.828 133.181 11.828C132.671 11.828 132.09 11.8455 131.436 11.8804V11.4461H131.975C132.359 11.4461 132.579 11.3538 132.634 11.1691C132.689 10.9844 132.716 10.0783 132.716 8.45091C132.716 6.68873 132.691 5.71029 132.641 5.5156C132.591 5.31592 132.369 5.21608 131.975 5.21608H131.436V4.78178C132.095 4.81672 132.676 4.83419 133.181 4.83419C133.72 4.83419 134.411 4.81672 135.255 4.78178V5.21608H134.723C134.563 5.21608 134.414 5.24354 134.274 5.29845C134.134 5.34837 134.052 5.42076 134.027 5.5156C134.002 5.61045 133.989 6.00981 133.989 6.71369L133.982 7.67964C134.661 7.73455 135.519 7.76201 136.558 7.76201C137.202 7.76201 137.696 7.73455 138.04 7.67964Z" fill="white"/>
<path d="M146.329 1.90638C146.275 2.65518 146.247 3.44392 146.247 4.27259V8.54076C146.247 10.1282 146.287 11.0043 146.367 11.1691C146.447 11.3288 146.731 11.4087 147.221 11.4087H147.782V11.8804C146.899 11.8455 146.15 11.828 145.536 11.828C144.917 11.828 144.173 11.8455 143.304 11.8804V11.4087H143.933C144.263 11.4087 144.477 11.3662 144.577 11.2814C144.677 11.1915 144.74 11.0193 144.764 10.7647C144.814 10.1806 144.839 9.42685 144.839 8.50332V4.22766C144.839 3.38401 144.822 2.61025 144.787 1.90638H144.023C142.79 1.90638 142.111 1.93633 141.986 1.99623C141.862 2.05115 141.779 2.27329 141.739 2.66267L141.635 3.66606H141.163L141.178 2.77499C141.178 2.41556 141.148 1.89889 141.088 1.22497C143.784 1.25991 145.369 1.27738 145.843 1.27738L149.984 1.22497C149.889 2.06862 149.834 2.88232 149.819 3.66606H149.355L149.28 2.68513C149.25 2.34567 149.207 2.14599 149.152 2.08609C149.098 2.02119 148.975 1.98126 148.786 1.96628C148.236 1.92635 147.612 1.90638 146.914 1.90638H146.329Z" fill="white"/>
<path d="M10.6273 21.0363L9.87285 21.6151C9.45659 21.0731 8.95579 20.6634 8.37044 20.3859C7.78942 20.104 7.14986 19.9631 6.45177 19.9631C5.68864 19.9631 4.98188 20.1474 4.33149 20.516C3.68109 20.8802 3.17595 21.3723 2.81607 21.9924C2.46052 22.6081 2.28274 23.3018 2.28274 24.0736C2.28274 25.24 2.68165 26.2134 3.47947 26.9939C4.28162 27.7744 5.2919 28.1646 6.51031 28.1646C7.85012 28.1646 8.97097 27.64 9.87285 26.5907L10.6273 27.163C10.1503 27.77 9.55415 28.2405 8.83872 28.5744C8.12762 28.9039 7.33197 29.0687 6.45177 29.0687C4.77809 29.0687 3.45779 28.5115 2.49087 27.3971C1.68004 26.4562 1.27463 25.3202 1.27463 23.9891C1.27463 22.5886 1.7646 21.4113 2.74452 20.4574C3.72879 19.4992 4.9602 19.0201 6.43876 19.0201C7.33197 19.0201 8.13846 19.1978 8.85823 19.5534C9.578 19.9046 10.1677 20.3989 10.6273 21.0363Z" fill="white"/>
<path d="M13.3134 21.7517V26.9874L18.5101 21.7517H18.5816V28.828H17.6711V23.6379L12.5134 28.828H12.4029V21.7517H13.3134Z" fill="white"/>
<path d="M28.292 21.7517H28.5522L30.9521 28.828H30.0026L28.253 23.6183L25.5343 28.828H25.3652L22.6401 23.6183L20.897 28.828H19.9475L22.3604 21.7517H22.6076L25.4563 27.2866L28.292 21.7517Z" fill="white"/>
<path d="M39.0886 18.8705V19.742C38.655 19.8157 37.9114 19.8677 36.8577 19.8981C36.0946 19.9241 35.5049 19.9761 35.0886 20.0542C34.6767 20.1279 34.3168 20.2732 34.009 20.49C33.7011 20.7024 33.441 21.0276 33.2285 21.4655C33.0204 21.8991 32.8903 22.3848 32.8383 22.9224L32.7472 23.9175C32.9944 23.1067 33.3998 22.5127 33.9635 22.1354C34.5315 21.7582 35.1602 21.5696 35.8496 21.5696C36.8989 21.5696 37.7748 21.9382 38.4772 22.6753C39.184 23.4124 39.5373 24.2904 39.5373 25.3094C39.5373 26.3197 39.1861 27.189 38.4837 27.9175C37.7813 28.6459 36.9032 29.0101 35.8496 29.0101C34.7699 29.0101 33.8551 28.6069 33.1049 27.8004C32.3548 26.9939 31.9798 25.7235 31.9798 23.9891C31.9798 22.7793 32.1163 21.8645 32.3895 21.2444C32.667 20.62 32.9835 20.1713 33.3391 19.8981C33.6946 19.6249 34.1542 19.4103 34.7179 19.2542C35.2816 19.0981 36.3374 19.0005 37.8853 18.9615C38.3623 18.9485 38.7634 18.9182 39.0886 18.8705ZM38.6138 25.3289C38.6138 24.5441 38.3406 23.8698 37.7943 23.3062C37.248 22.7425 36.5997 22.4606 35.8496 22.4606C35.1038 22.4606 34.4578 22.7425 33.9114 23.3062C33.3651 23.8698 33.0919 24.5441 33.0919 25.3289C33.0919 26.1094 33.3543 26.7749 33.8789 27.3256C34.4079 27.8719 35.0648 28.1451 35.8496 28.1451C36.6387 28.1451 37.2956 27.8719 37.8203 27.3256C38.3493 26.7749 38.6138 26.1094 38.6138 25.3289Z" fill="white"/>
<path d="M42.1389 21.7517V26.9874L47.3356 21.7517H47.4071V28.828H46.4966V23.6379L41.3389 28.828H41.2284V21.7517H42.1389Z" fill="white"/>
<path d="M52.7859 21.5696C53.8742 21.5696 54.7761 21.9642 55.4915 22.7533C56.1419 23.4731 56.4671 24.3251 56.4671 25.3094C56.4671 26.298 56.1224 27.163 55.433 27.9044C54.7479 28.6416 53.8655 29.0101 52.7859 29.0101C51.7019 29.0101 50.8152 28.6416 50.1258 27.9044C49.4407 27.163 49.0981 26.298 49.0981 25.3094C49.0981 24.3294 49.4233 23.4796 50.0737 22.7598C50.7892 21.9663 51.6932 21.5696 52.7859 21.5696ZM52.7859 22.4606C52.0314 22.4606 51.3832 22.7403 50.8412 23.2997C50.2992 23.859 50.0282 24.5354 50.0282 25.3289C50.0282 25.8405 50.1518 26.3175 50.3989 26.7598C50.6461 27.202 50.9799 27.5446 51.4005 27.7874C51.8211 28.0259 52.2829 28.1451 52.7859 28.1451C53.2888 28.1451 53.7506 28.0259 54.1712 27.7874C54.5918 27.5446 54.9257 27.202 55.1728 26.7598C55.42 26.3175 55.5435 25.8405 55.5435 25.3289C55.5435 24.5354 55.2704 23.859 54.724 23.2997C54.1821 22.7403 53.536 22.4606 52.7859 22.4606Z" fill="white"/>
<path d="M59.3484 24.7305H59.8231C60.1267 24.7305 60.4042 24.6308 60.6556 24.4313C60.9115 24.2319 61.0394 23.9457 61.0394 23.5728C61.0394 23.2563 60.9375 22.9853 60.7337 22.7598C60.5299 22.53 60.2177 22.4151 59.7971 22.4151C59.3072 22.4151 58.815 22.6059 58.3207 22.9875L57.8069 22.3566C58.4443 21.8233 59.1207 21.5566 59.8362 21.5566C60.4258 21.5566 60.9201 21.7322 61.319 22.0834C61.718 22.4346 61.9174 22.8877 61.9174 23.4427C61.9174 24.1799 61.5922 24.6807 60.9418 24.9452C61.7917 25.3007 62.2166 25.9229 62.2166 26.8118C62.2166 27.3755 62.0171 27.8849 61.6182 28.3402C61.2237 28.7912 60.6318 29.0166 59.8427 29.0166C58.8757 29.0166 58.0974 28.7023 57.5077 28.0735L58.0801 27.4232C58.518 27.9175 59.0795 28.1646 59.7646 28.1646C60.2242 28.1646 60.5841 28.041 60.8443 27.7939C61.1088 27.5467 61.241 27.2215 61.241 26.8183C61.241 26.4237 61.1088 26.1072 60.8443 25.8687C60.5798 25.6302 60.2676 25.511 59.9077 25.511H59.3484V24.7305Z" fill="white"/>
<path d="M69.5465 28.828H67.4913V21.7517H69.514C70.2858 21.7517 70.8408 21.9295 71.179 22.285C71.5216 22.6406 71.6928 23.0568 71.6928 23.5338C71.6928 24.2536 71.3763 24.7414 70.7433 24.9972C71.6625 25.3224 72.1221 25.9489 72.1221 26.8768C72.1221 28.1776 71.2636 28.828 69.5465 28.828ZM68.4083 22.5387V24.75H69.0002C69.5379 24.75 69.8891 24.7284 70.0538 24.685C70.2186 24.6416 70.3725 24.5354 70.5156 24.3663C70.663 24.1929 70.7368 23.9652 70.7368 23.6834C70.7368 23.3885 70.6609 23.1414 70.5091 22.9419C70.3574 22.7425 70.1969 22.6254 70.0278 22.5907C69.8631 22.556 69.5205 22.5387 69.0002 22.5387H68.4083ZM68.4083 25.5825V28.0605H69.3839C69.8436 28.0605 70.1709 28.0324 70.366 27.976C70.5655 27.9153 70.7346 27.7874 70.8733 27.5923C71.0164 27.3971 71.088 27.15 71.088 26.8508C71.088 26.4649 70.9666 26.1571 70.7238 25.9272C70.4809 25.6974 70.1601 25.5825 69.7612 25.5825H68.4083Z" fill="white"/>
<path d="M80.7723 21.7517V28.828H79.8748V27.6118C79.4932 28.0757 79.064 28.4248 78.587 28.6589C78.1144 28.893 77.5963 29.0101 77.0326 29.0101C76.031 29.0101 75.1746 28.6481 74.4635 27.924C73.7568 27.1955 73.4034 26.311 73.4034 25.2703C73.4034 24.2514 73.7611 23.3799 74.4765 22.6558C75.192 21.9317 76.0527 21.5696 77.0586 21.5696C77.6396 21.5696 78.1643 21.6932 78.6326 21.9403C79.1052 22.1875 79.5193 22.5582 79.8748 23.0525V21.7517H80.7723ZM77.1301 22.4476C76.6228 22.4476 76.1545 22.5734 75.7253 22.8249C75.296 23.072 74.9535 23.4211 74.6977 23.872C74.4462 24.3229 74.3204 24.7999 74.3204 25.3029C74.3204 25.8015 74.4483 26.2785 74.7042 26.7337C74.96 27.189 75.3025 27.5446 75.7318 27.8004C76.1654 28.0519 76.6293 28.1776 77.1236 28.1776C77.6223 28.1776 78.0949 28.0519 78.5415 27.8004C78.9881 27.5489 79.3306 27.2085 79.5691 26.7793C79.8119 26.35 79.9333 25.8665 79.9333 25.3289C79.9333 24.5094 79.6623 23.8243 79.1203 23.2736C78.5827 22.723 77.9193 22.4476 77.1301 22.4476Z" fill="white"/>
<path d="M93.403 28.828H82.8276V21.7517H83.7447V27.9695H87.6405V21.7517H88.5706V27.9695H92.4729V21.7517H93.403V28.828Z" fill="white"/>
<path d="M101.39 26.4801L102.157 26.8833C101.906 27.3776 101.615 27.7765 101.286 28.0801C100.956 28.3836 100.586 28.6155 100.174 28.776C99.7617 28.9321 99.2956 29.0101 98.7753 29.0101C97.6219 29.0101 96.72 28.6329 96.0696 27.8784C95.4192 27.1196 95.094 26.2633 95.094 25.3094C95.094 24.4118 95.3694 23.6118 95.92 22.9094C96.6181 22.0162 97.5525 21.5696 98.7232 21.5696C99.9286 21.5696 100.891 22.027 101.611 22.9419C102.123 23.588 102.383 24.3945 102.391 25.3614H96.0306C96.0479 26.1852 96.3103 26.8616 96.8176 27.3906C97.3249 27.9153 97.9514 28.1776 98.6972 28.1776C99.0571 28.1776 99.4062 28.1147 99.7444 27.989C100.087 27.8633 100.377 27.6963 100.616 27.4882C100.854 27.2801 101.112 26.944 101.39 26.4801ZM101.39 24.5744C101.268 24.0888 101.091 23.7007 100.857 23.4102C100.627 23.1197 100.321 22.8856 99.9395 22.7078C99.5579 22.53 99.1568 22.4411 98.7362 22.4411C98.0425 22.4411 97.4463 22.6644 96.9477 23.111C96.5834 23.4362 96.3081 23.924 96.1217 24.5744H101.39Z" fill="white"/>
<path d="M105.006 21.7517V26.9874L110.203 21.7517H110.274V28.828H109.364V23.6379L104.206 28.828H104.095V21.7517H105.006ZM104.882 18.9095H105.741C105.888 19.135 106.086 19.3041 106.333 19.4168C106.58 19.5295 106.875 19.5859 107.217 19.5859C107.564 19.5859 107.844 19.536 108.056 19.4363C108.269 19.3366 108.47 19.161 108.661 18.9095H109.494C109.398 19.2997 109.153 19.6271 108.759 19.8916C108.369 20.1517 107.853 20.2818 107.211 20.2818C106.573 20.2818 106.053 20.1539 105.65 19.8981C105.247 19.6379 104.991 19.3084 104.882 18.9095Z" fill="white"/>
<path d="M115.237 21.7517H116.199L118.632 27.202L120.993 21.7517H121.962L117.741 31.4166H116.778L118.144 28.2947L115.237 21.7517Z" fill="white"/>
<path d="M130.007 23.2216L129.285 23.6704C128.661 22.8422 127.809 22.4281 126.729 22.4281C125.866 22.4281 125.149 22.7056 124.576 23.2606C124.008 23.8156 123.724 24.4899 123.724 25.2834C123.724 25.7993 123.854 26.285 124.115 26.7402C124.379 27.1955 124.739 27.5489 125.194 27.8004C125.654 28.0519 126.168 28.1776 126.736 28.1776C127.776 28.1776 128.626 27.7635 129.285 26.9354L130.007 27.4101C129.669 27.9175 129.214 28.312 128.641 28.5939C128.073 28.8714 127.425 29.0101 126.697 29.0101C125.578 29.0101 124.65 28.6546 123.913 27.9435C123.176 27.2324 122.807 26.3673 122.807 25.3484C122.807 24.6633 122.979 24.0281 123.321 23.4427C123.668 22.8531 124.143 22.3934 124.746 22.0639C125.348 21.7344 126.022 21.5696 126.768 21.5696C127.237 21.5696 127.687 21.6411 128.121 21.7842C128.559 21.9273 128.93 22.1138 129.233 22.3436C129.537 22.5734 129.795 22.8661 130.007 23.2216Z" fill="white"/>
<path d="M130.97 21.7517H135.627V22.5387H133.753V28.828H132.836V22.5387H130.97V21.7517Z" fill="white"/>
<path d="M140.212 21.5696C141.3 21.5696 142.202 21.9642 142.918 22.7533C143.568 23.4731 143.893 24.3251 143.893 25.3094C143.893 26.298 143.548 27.163 142.859 27.9044C142.174 28.6416 141.292 29.0101 140.212 29.0101C139.128 29.0101 138.241 28.6416 137.552 27.9044C136.867 27.163 136.524 26.298 136.524 25.3094C136.524 24.3294 136.849 23.4796 137.5 22.7598C138.215 21.9663 139.119 21.5696 140.212 21.5696ZM140.212 22.4606C139.457 22.4606 138.809 22.7403 138.267 23.2997C137.725 23.859 137.454 24.5354 137.454 25.3289C137.454 25.8405 137.578 26.3175 137.825 26.7598C138.072 27.202 138.406 27.5446 138.827 27.7874C139.247 28.0259 139.709 28.1451 140.212 28.1451C140.715 28.1451 141.177 28.0259 141.597 27.7874C142.018 27.5446 142.352 27.202 142.599 26.7598C142.846 26.3175 142.97 25.8405 142.97 25.3289C142.97 24.5354 142.696 23.859 142.15 23.2997C141.608 22.7403 140.962 22.4606 140.212 22.4606Z" fill="white"/>
<path d="M146.501 21.7517V26.9874L151.698 21.7517H151.769V28.828H150.859V23.6379L145.701 28.828H145.591V21.7517H146.501ZM146.378 18.9095H147.236C147.384 19.135 147.581 19.3041 147.828 19.4168C148.075 19.5295 148.37 19.5859 148.713 19.5859C149.059 19.5859 149.339 19.536 149.552 19.4363C149.764 19.3366 149.966 19.161 150.156 18.9095H150.989C150.894 19.2997 150.649 19.6271 150.254 19.8916C149.864 20.1517 149.348 20.2818 148.706 20.2818C148.069 20.2818 147.548 20.1539 147.145 19.8981C146.742 19.6379 146.486 19.3084 146.378 18.9095Z" fill="white"/>
<path d="M156.966 25.6346H155.366C154.642 25.6346 154.104 25.4481 153.753 25.0752C153.406 24.7023 153.233 24.1842 153.233 23.5208V21.7517H154.124V23.033C154.124 23.8568 154.241 24.3685 154.475 24.5679C154.709 24.763 155.095 24.8606 155.633 24.8606H156.966V21.7517H157.87V28.828H156.966V25.6346Z" fill="white"/>
<path d="M160.81 21.7517V26.9874L166.007 21.7517H166.078V28.828H165.168V23.6379L160.01 28.828H159.899V21.7517H160.81Z" fill="white"/>
<path d="M170.163 28.828H168.107V21.7517H170.13C170.902 21.7517 171.457 21.9295 171.795 22.285C172.138 22.6406 172.309 23.0568 172.309 23.5338C172.309 24.2536 171.992 24.7414 171.359 24.9972C172.279 25.3224 172.738 25.9489 172.738 26.8768C172.738 28.1776 171.88 28.828 170.163 28.828ZM169.024 22.5387V24.75H169.616C170.154 24.75 170.505 24.7284 170.67 24.685C170.835 24.6416 170.989 24.5354 171.132 24.3663C171.279 24.1929 171.353 23.9652 171.353 23.6834C171.353 23.3885 171.277 23.1414 171.125 22.9419C170.973 22.7425 170.813 22.6254 170.644 22.5907C170.479 22.556 170.137 22.5387 169.616 22.5387H169.024ZM169.024 25.5825V28.0605H170C170.46 28.0605 170.787 28.0324 170.982 27.976C171.182 27.9153 171.351 27.7874 171.489 27.5923C171.632 27.3971 171.704 27.15 171.704 26.8508C171.704 26.4649 171.583 26.1571 171.34 25.9272C171.097 25.6974 170.776 25.5825 170.377 25.5825H169.024Z" fill="white"/>
<path d="M177.688 21.5696C178.776 21.5696 179.678 21.9642 180.393 22.7533C181.044 23.4731 181.369 24.3251 181.369 25.3094C181.369 26.298 181.024 27.163 180.335 27.9044C179.65 28.6416 178.767 29.0101 177.688 29.0101C176.604 29.0101 175.717 28.6416 175.028 27.9044C174.342 27.163 174 26.298 174 25.3094C174 24.3294 174.325 23.4796 174.975 22.7598C175.691 21.9663 176.595 21.5696 177.688 21.5696ZM177.688 22.4606C176.933 22.4606 176.285 22.7403 175.743 23.2997C175.201 23.859 174.93 24.5354 174.93 25.3289C174.93 25.8405 175.054 26.3175 175.301 26.7598C175.548 27.202 175.882 27.5446 176.302 27.7874C176.723 28.0259 177.185 28.1451 177.688 28.1451C178.191 28.1451 178.652 28.0259 179.073 27.7874C179.494 27.5446 179.827 27.202 180.075 26.7598C180.322 26.3175 180.445 25.8405 180.445 25.3289C180.445 24.5354 180.172 23.859 179.626 23.2997C179.084 22.7403 178.438 22.4606 177.688 22.4606Z" fill="white"/>
<path d="M189.935 23.2216L189.213 23.6704C188.588 22.8422 187.736 22.4281 186.657 22.4281C185.794 22.4281 185.076 22.7056 184.504 23.2606C183.936 23.8156 183.652 24.4899 183.652 25.2834C183.652 25.7993 183.782 26.285 184.042 26.7402C184.306 27.1955 184.666 27.5489 185.122 27.8004C185.581 28.0519 186.095 28.1776 186.663 28.1776C187.704 28.1776 188.554 27.7635 189.213 26.9354L189.935 27.4101C189.596 27.9175 189.141 28.312 188.569 28.5939C188.001 28.8714 187.352 29.0101 186.624 29.0101C185.505 29.0101 184.577 28.6546 183.84 27.9435C183.103 27.2324 182.735 26.3673 182.735 25.3484C182.735 24.6633 182.906 24.0281 183.249 23.4427C183.595 22.8531 184.07 22.3934 184.673 22.0639C185.276 21.7344 185.95 21.5696 186.696 21.5696C187.164 21.5696 187.615 21.6411 188.048 21.7842C188.486 21.9273 188.857 22.1138 189.161 22.3436C189.464 22.5734 189.722 22.8661 189.935 23.2216Z" fill="white"/>
<path d="M190.897 21.7517H195.554V22.5387H193.681V28.828H192.764V22.5387H190.897V21.7517Z" fill="white"/>
<path d="M197.7 21.7517V26.9874L202.897 21.7517H202.968V28.828H202.058V23.6379L196.9 28.828H196.79V21.7517H197.7Z" fill="white"/>
</svg>
