<?xml version="1.0" encoding="UTF-8"?>
<!DOCTYPE svg PUBLIC "-//W3C//DTD SVG 1.1//EN" "http://www.w3.org/Graphics/SVG/1.1/DTD/svg11.dtd">
<!-- Creator: CorelDRAW 2019 (64-Bit) -->
<svg xmlns="http://www.w3.org/2000/svg" xml:space="preserve" width="890.537mm" height="200mm" version="1.1" style="shape-rendering:geometricPrecision; text-rendering:geometricPrecision; image-rendering:optimizeQuality; fill-rule:evenodd; clip-rule:evenodd"
viewBox="0 0 89053.7 20000"
 xmlns:xlink="http://www.w3.org/1999/xlink">
 <defs>
  <style type="text/css">
   <![CDATA[
    .str0 {stroke:#BB3227;stroke-width:7.62;stroke-miterlimit:10}
    .fil0 {fill:#BB3227}
   ]]>
  </style>
 </defs>
 <g id="Слой_x0020_1">
  <metadata id="CorelCorpID_0Corel-Layer"/>
  <path class="fil0 str0" d="M75277.44 7109.76l2319.5 0 0 9282.28 -2319.5 0 0 -9282.28zm-74427.46 -3608.13c1711.59,1888.92 14935.26,1888.92 17899.54,0 -2964.28,1888.92 -2964.28,13907.12 0,16267.84 -2964.28,-2360.72 -16187.95,-2360.72 -17899.54,0 1711.59,-2360.72 1711.59,-14378.92 0,-16267.84zm6470.23 7350.43l4676.96 0c636.89,0 1865.72,248.29 1865.72,1090.99l0 3463.7c0,599.9 -839.47,1090.71 -1865.72,1090.71l-5171.68 0c-79.56,0 -1601.48,-3.06 -1679.02,-8.75l0 -2210.33 6414.94 0c41.66,0 75.86,-33.93 75.86,-75.5l0 -1741.56c0,-15.88 -5.05,-30.56 -13.67,-43.07l-4677.13 0c-661.49,0 -1718.76,-497.48 -1718.76,-1350.95l0 -3089.93c0,-599.94 692.52,-1204.28 1718.76,-1204.28l5171.92 0c79.15,0 1268.75,2.63 1346.16,8.66l0 2210.18 -6082.14 0c-41.66,0 -75.8,33.77 -75.8,75.64l0 1741.26c0,16.18 4.99,30.83 13.6,43.23zm19909.17 -9137.3l0 2985.87 538.29 0 0 -1314.03 105.02 0c507.57,0 785.96,221.88 990.29,703.29 92.72,246.88 197.98,481.26 278.39,610.74l569.39 0c-136.09,-240.65 -241.48,-530.57 -321.76,-728.05 -235.23,-536.57 -526.02,-857.63 -1008.74,-906.8l1305.79 -1351.02 -662.24 0 -1126.28 1295.48 -129.86 0 0 -1295.48 -538.29 0zm5117.47 2985.87c-37.25,-203.75 -49.55,-456.53 -49.55,-715.69l0 -1116.64c0,-598.48 -222.65,-1221.58 -1138.44,-1221.58 -377.6,0 -736.54,104.94 -984.04,265.42l123.82 357.68c210.38,-135.7 501.28,-221.97 779.53,-221.97 612.73,0 680.84,444.23 680.84,691.01l0 61.64c-1157.17,-6.24 -1800.86,388.62 -1800.86,1110.54 0,431.63 309.63,857.36 915.93,857.36 426.91,0 748.67,-209.61 915.79,-444.23l18.56 0 43.3 376.46 495.12 0zm-575.68 -1005.61c0,55.44 -12.16,117.21 -30.72,172.61 -86.8,253.16 -334.33,499.81 -724,499.81 -278.73,0 -513.58,-166.48 -513.58,-518.21 0,-579.94 674.31,-684.74 1268.3,-672.37l0 518.16zm1355.35 -1980.26l0 1042.47c0,684.78 414.51,974.83 983.94,974.83 284.64,0 606.3,-92.67 810.63,-228.25l12.2 0 0 1196.82 538.43 0 0 -2985.87 -538.43 0 0 1406.56c-166.98,123.34 -408.22,209.75 -643.45,209.75 -476.47,0 -618.84,-259.15 -618.84,-635.48l0 -980.83 -544.48 0zm5643.54 1591.67c5.91,-55.64 18.56,-141.94 18.56,-253.15 0,-549.04 -260.04,-1406.56 -1237.69,-1406.56 -872.52,0 -1404.8,709.55 -1404.8,1610.17 0,901.04 550.87,1505.27 1472.67,1505.27 476.57,0 804.62,-98.57 996.45,-184.98l-92.82 -388.62c-204.23,86.3 -439.46,154.11 -829.13,154.11 -544.68,0 -1014.89,-302.05 -1027.43,-1036.24l2104.19 0zm-2097.67 -388.59c43.17,-376.46 284.41,-882.26 835.24,-882.26 612.59,0 761.11,536.67 754.96,882.26l-1590.2 0zm4832.73 1264.59c-154.81,67.94 -358.9,148.11 -668.29,148.11 -594.24,0 -1039.84,-425.77 -1039.84,-1116.78 0,-622.98 371.44,-1128.91 1058.19,-1128.91 297.05,0 501.42,67.9 631.25,141.84l123.82 -419.39c-148.53,-74.14 -433.17,-154.32 -755.07,-154.32 -977.78,0 -1608.69,666.15 -1608.69,1585.55 0,912.89 587.75,1523.63 1491.13,1523.63 402.31,0 718.05,-98.57 860.22,-172.61l-92.72 -407.12zm346.37 -2467.67l0 431.76 934.48 0 0 2554.11 538.29 0 0 -2554.11 934.49 0 0 -431.76 -2407.26 0zm2914.58 2985.87c160.83,12.37 507.57,36.9 841.53,36.9 587.98,0 1578.04,-98.71 1578.04,-882.16 0,-431.76 -321.9,-678.51 -761.22,-740.42l0 -12.37c340.35,-73.7 624.99,-302.08 624.99,-672.41 0,-666.25 -829.12,-746.55 -1330.4,-746.55 -352.79,0 -742.42,31.14 -952.94,68.04l0 2948.97zm519.88 -2615.78c129.83,-12.37 241.24,-24.77 420.62,-24.77 544.58,0 804.42,141.84 804.42,438.13 0,351.59 -414.62,468.76 -816.82,468.76l-408.22 0 0 -882.12zm-6.4 1239.98l396.06 0c519.97,0 953.14,92.68 953.14,524.4 0,431.9 -544.58,518.21 -909.74,518.21 -173.27,0 -284.64,-6.14 -439.46,-24.77l0 -1017.84zm3861.62 -1678.11c-829.36,0 -1485.32,586.34 -1485.32,1585.44 0,944.03 624.99,1536.24 1435.52,1536.24 724.11,0 1491.34,-481.13 1491.34,-1585.41 0,-913.17 -581.6,-1536.27 -1441.54,-1536.27zm-12.55 407.22c643.56,0 897.24,641.65 897.24,1147.45 0,672.51 -389.91,1159.91 -909.54,1159.91 -532.17,0 -909.77,-493.67 -909.77,-1147.54 0,-567.58 278.52,-1159.82 922.07,-1159.82zm5742.37 -1801.39c-204.12,73.91 -501.17,123.45 -742.42,160.35 -581.83,98.67 -996.2,290.02 -1287.23,703.28 -321.8,419.49 -464.17,974.8 -464.17,1653.45 0,993.2 346.84,1998.77 1398.51,1998.77 878.78,0 1386.21,-604.58 1386.21,-1579.28 0,-950.16 -538.29,-1474.36 -1274.8,-1474.36 -426.81,0 -847.68,240.51 -1039.5,672.37l-18.56 0c24.71,-314.65 136.12,-715.64 327.91,-987.06 228.98,-326.92 581.73,-487.27 1064.45,-561.44 197.98,-30.91 470.22,-80.17 624.89,-135.71l24.71 -450.37zm-259.8 2979.61c0,549.41 -222.82,1129.14 -822.97,1129.14 -593.99,0 -835.37,-709.55 -835.37,-1203.08 0,-240.38 49.31,-456.4 148.28,-635.38 123.96,-240.51 352.9,-407.23 674.55,-407.23 643.69,0 835.51,629.25 835.51,1116.55zm3644.81 74.27c6.15,-55.64 18.59,-141.94 18.59,-253.15 0,-549.04 -260.07,-1406.56 -1237.72,-1406.56 -872.38,0 -1404.66,709.55 -1404.66,1610.17 0,901.04 550.63,1505.27 1472.67,1505.27 476.57,0 804.52,-98.57 996.44,-184.98l-92.95 -388.62c-204.23,86.3 -439.19,154.11 -829.23,154.11 -544.44,0 -1014.65,-302.05 -1027.16,-1036.24l2104.02 0zm-2097.91 -388.59c43.41,-376.46 284.55,-882.26 835.52,-882.26 612.58,0 761.11,536.67 754.96,882.26l-1590.48 0zm4832.87 1264.59c-154.67,67.94 -358.8,148.11 -668.29,148.11 -594.1,0 -1039.71,-425.77 -1039.71,-1116.78 0,-622.98 371.59,-1128.91 1058.16,-1128.91 297.09,0 501.42,67.9 631.29,141.84l123.81 -419.39c-148.66,-74.14 -433.2,-154.32 -755.1,-154.32 -977.64,0 -1608.75,666.15 -1608.75,1585.55 0,912.89 587.84,1523.63 1491.23,1523.63 402.41,0 718.05,-98.57 860.18,-172.61l-92.82 -407.12zm717.95 -2467.67l0 2985.87 2289.46 0 24.6 950.16 420.9 0 30.97 -1351.16 -309.49 -6.27 0 -2578.6 -538.29 0 0 2560.1 -1379.86 0 0 -2560.1 -538.29 0zm5822.65 1591.67c6.15,-55.64 18.59,-141.94 18.59,-253.15 0,-549.04 -259.83,-1406.56 -1237.45,-1406.56 -872.62,0 -1404.93,709.55 -1404.93,1610.17 0,901.04 550.86,1505.27 1472.91,1505.27 476.47,0 804.51,-98.57 996.34,-184.98l-92.86 -388.62c-204.23,86.3 -439.32,154.11 -829.22,154.11 -544.68,0 -1014.86,-302.05 -1027.17,-1036.24l2103.79 0zm-2097.63 -388.59c43.4,-376.46 284.5,-882.26 835.37,-882.26 612.56,0 761.08,536.67 754.96,882.26l-1590.33 0zm2778.46 -1203.08l0 2985.87 538.19 0 0 -1351.16 1423.22 0 0 1351.16 538.43 0 0 -2985.87 -538.43 0 0 1203.08 -1423.22 0 0 -1203.08 -538.19 0zm3378.62 0l0 2985.87 538.19 0 0 -1351.16 1423.36 0 0 1351.16 538.42 0 0 -2985.87 -538.42 0 0 1203.08 -1423.36 0 0 -1203.08 -538.19 0zm4659.6 -68.04c-829.22,0 -1485.08,586.34 -1485.08,1585.44 0,944.03 625,1536.24 1435.53,1536.24 723.86,0 1491.36,-481.13 1491.36,-1585.41 0,-913.17 -581.59,-1536.27 -1441.81,-1536.27zm-12.54 407.22c643.58,0 897.37,641.65 897.37,1147.45 0,672.51 -389.8,1159.91 -909.64,1159.91 -532.18,0 -909.64,-493.67 -909.64,-1147.54 0,-567.58 278.49,-1159.82 921.91,-1159.82zm5628.08 914.12l3848.6 0 0 698.24 -2557.74 0 0 1251.5 2557.74 0 0 665.8 -2557.74 0 0 1888.79 -1290.86 0 0 -4504.33zm-68 -934.29l4137.95 0c666.82,0 1212.26,543.42 1212.26,1208.37l0 4125.55c0,664.78 -545.44,1208.63 -1212.26,1208.63l-4137.95 0c-666.93,0 -1212.47,-543.85 -1212.47,-1208.63l0 -4125.55c0,-664.95 545.54,-1208.37 1212.47,-1208.37zm-602.54 -952.68l5342.93 0c860.83,0 1565.15,702.19 1565.15,1560.53l0 5326.76c0,858.48 -704.32,1560.22 -1565.15,1560.22l-5342.93 0c-860.94,0 -1565.15,-701.74 -1565.15,-1560.22l0 -5326.76c0,-858.34 704.21,-1560.53 1565.15,-1560.53zm-62586.66 5996.44l2416.28 0 0 7612.07 4928.94 0 0 1606.22 -7345.22 0 0 -9218.29zm8505.05 32.23l7732.11 0 0 1894.92 -5412.51 0 0 1894.91 5412.51 0 0 1670.18 -5412.51 0 0 1863.03 5412.51 0 0 1894.92 -5412.51 0 0 32.26 -2319.6 0 0 -9250.22zm8933.16 0l7732.25 0 0 1894.92 -5412.41 0 0 1894.91 5412.41 0 0 1670.18 -5412.41 0 0 1863.03 5412.41 0 0 1894.92 -5412.41 0 0 32.26 -2319.84 0 0 -9250.22zm11085.81 1747.96l4254.25 0 0 2736.94 -4254.25 0 0 -2736.94zm-2267.65 -1844.35l7087.6 19.35c939.17,0 1707.49,766.01 1707.49,1702.45l0 2569.47c0,936.27 -768.32,1702.17 -1707.49,1702.17l-4864.68 0 0 3353.17 -2222.92 0 0 -9346.61zm9729.33 64.16l2223.06 0 0 3956.96 1503.63 0 3002.97 -3921.25 2777.51 0 -3724.51 4497.23 3965.17 4785.66 -2953.79 0 -3263.24 -4017.26 -1307.74 0 0 3981.11 -2223.06 0 0 -9282.45zm12854.2 1766.57l4478.31 0 0 2216.04 -4478.31 0 0 -2216.04zm152.29 3597.05l0 3874.98 -2343.63 0 0 -7388.05c0,-1000.22 845.29,-1818.32 1878.37,-1818.32l5167.88 0c1032.98,0 1878.51,818.1 1878.51,1818.32l21.56 7388.05 -2343.59 0 0 -3874.98 -4259.1 0z"/>
 </g>
</svg>
