<svg width="185" height="41" viewBox="0 0 185 41" fill="none" xmlns="http://www.w3.org/2000/svg">
<path fill-rule="evenodd" clip-rule="evenodd" d="M176.874 8.40315C178.173 8.90563 180.094 10.9562 180.289 11.0811L184.071 7.25342C179.786 2.56783 170.876 -1.0449 162.091 2.56115C158.256 4.13526 155.736 6.30983 153.727 8.91742C148.834 15.2649 148.855 24.1769 153.612 30.5901C154.7 32.0575 155.813 33.1525 157.202 34.2808C163.348 39.2719 172.985 39.9031 179.923 35.7056C181.099 34.9938 182.166 34.2801 183.073 33.3481C183.283 33.1321 183.787 32.6254 184.067 32.4741C183.876 31.9808 183.509 31.8665 183.131 31.4707L180.281 28.6134C179.999 28.7508 179.224 29.5227 178.991 29.7411C178.521 30.1819 178.129 30.4665 177.589 30.8379C176.689 31.4561 175.41 32.0935 174.2 32.4815C171.323 33.4044 168.41 33.4826 165.47 32.6303C160.861 31.2943 156.84 27.3984 155.864 22.483C153.845 12.3098 163.618 4.29426 173.381 6.91943C174.316 7.17094 176.313 7.89626 176.874 8.40315Z" fill="#CE4746"/>
<path fill-rule="evenodd" clip-rule="evenodd" d="M180.29 11.0813C180.095 10.9564 178.173 8.90581 176.874 8.40332C176.711 8.55159 176.626 8.67875 176.454 8.87063L171.32 14.0147C170.709 14.5953 170.022 15.3556 169.352 15.8791C168.45 15.3273 166.012 12.4623 165.368 12.2591L161.329 12.2551L161.305 26.2436L166.23 26.2563L166.249 19.7174C166.835 19.9811 168.817 22.1073 169.352 22.5635C169.815 22.3027 174.2 17.6401 174.831 16.8802C175.062 16.6026 175.286 16.4494 175.517 16.1715L177.521 13.9827C177.654 13.8408 177.751 13.7938 177.89 13.6581C178.019 13.5325 178.095 13.4254 178.216 13.2836C178.486 12.9672 178.591 12.8928 178.908 12.5813L180.29 11.0813Z" fill="#4992AF"/>
<path fill-rule="evenodd" clip-rule="evenodd" d="M3.19907 24.0604C3.7452 24.8313 7.815 34.0503 8.1143 35.0963L10.0053 35.088C10.2988 34.1949 10.8321 33.1099 11.2242 32.2398L13.6926 26.7911C13.9024 26.3674 14.1248 25.891 14.3228 25.4409C14.4136 25.2348 14.8469 24.2231 15.0365 24.1195L15.0359 36.6305L17.3802 36.663C17.3815 34.6227 17.487 21.9861 17.3311 21.0518L14.2199 21.0522C13.7397 21.6947 10.8588 27.9915 10.3955 29.103C10.1551 29.6799 9.49575 31.4804 9.18946 31.8508C8.60779 30.3397 5.19016 22.5762 4.24569 21.052L0.932607 21.0508C0.797315 22.6168 0.916594 34.1372 0.919539 36.663H3.19815L3.19907 24.0604Z" fill="white"/>
<path fill-rule="evenodd" clip-rule="evenodd" d="M95.3277 27.2944C96.2562 26.9454 97.3888 26.8489 98.4632 26.8823C99.7441 26.9221 100.476 27.1971 100.898 28.0558C101.516 29.3119 101.54 33.0164 100.737 34.1222C100.204 34.8549 99.4049 35.1134 98.1534 35.1166C97.1594 35.1192 95.7881 34.9092 95.4257 34.1611C95.2162 33.7279 95.3091 28.2243 95.3277 27.2944ZM95.3229 36.2359C95.759 36.3386 96.1987 36.6564 96.8434 36.8072C98.382 37.1667 100.856 36.9596 101.935 36.0458C103.493 34.7265 103.791 32.3154 103.607 29.8494C103.418 27.3109 102.594 25.7201 100.225 25.1898C98.5252 24.809 96.2941 25.0319 94.5789 25.4072C94.2183 25.486 93.2159 25.6311 93.1211 25.9931L93.1226 40.9641H95.3229V36.2359Z" fill="white"/>
<path fill-rule="evenodd" clip-rule="evenodd" d="M39.446 15.9964H49.4789L49.4964 18.9854L51.2018 19.0194L51.7643 14.1268L49.3521 14.1071L49.3504 4.6416H47.1806L47.1491 14.0766L41.5934 14.113L41.5915 4.6416H39.4173C39.2958 5.67296 39.2759 15.2833 39.446 15.9964Z" fill="white"/>
<path fill-rule="evenodd" clip-rule="evenodd" d="M12.2086 15.7098L11.6444 13.7056C9.56315 14.1684 6.77025 14.6084 4.73646 13.744C2.8722 12.9516 2.61947 10.524 2.61339 8.13167C2.6075 5.82185 2.77022 3.35902 4.65308 2.53537C6.67399 1.65141 9.58119 2.17517 11.6676 2.60502L12.2213 0.559726C9.30177 0.126536 5.64798 -0.575749 2.9946 0.852564C1.87085 1.45741 1.12831 2.24764 0.635924 3.67859C-0.43463 6.78954 -0.48617 13.7025 3.14131 15.4655C5.48655 16.6053 9.60678 16.5415 12.2086 15.7098Z" fill="white"/>
<path fill-rule="evenodd" clip-rule="evenodd" d="M53.6045 15.9961C56.5183 15.9938 55.4246 16.4273 57.3163 14.1082L61.4442 8.15467L61.4562 15.9955H63.6582L63.656 4.64131H61.4683L55.829 12.7745L55.8279 4.66558L53.6303 4.63867L53.6045 15.9961Z" fill="white"/>
<path fill-rule="evenodd" clip-rule="evenodd" d="M117.97 36.663C118.424 36.4039 119.815 34.4566 120.263 33.8426L123.711 28.8566L123.714 36.6584L125.917 36.6378V25.3126L123.684 25.3137C123.271 26.2703 120.329 30.6046 119.57 31.6219C119.083 32.2744 118.638 32.9104 118.088 33.4841L118.087 25.3047L115.861 25.3437L115.86 36.6519L117.97 36.663Z" fill="white"/>
<path fill-rule="evenodd" clip-rule="evenodd" d="M73.8717 13.9874C73.7104 14.2634 74.021 14.0624 73.588 14.2363C72.9359 14.4985 71.1802 14.603 70.4677 14.5729C69.0034 14.5109 68.4799 14.1405 68.4169 12.7206C68.3509 11.2351 68.5675 10.5926 70.0583 10.4549C71.4092 10.3302 72.6018 10.4888 73.8717 10.6475V13.9874ZM66.7354 4.86459C66.6502 5.40471 66.9935 6.13584 67.0942 6.70305C68.4031 6.42217 72.3833 5.57707 73.4251 6.96458C73.7892 7.44931 73.9153 8.38551 73.8402 9.08199C71.4103 8.69594 67.2087 8.07966 66.2548 10.8371C65.9596 11.6903 65.9347 12.9035 66.1442 13.8383C67.0012 17.6623 73.3563 16.1479 76.0069 15.4465C76.1262 13.886 76.0273 11.9749 76.0273 10.3761C76.0273 8.8676 76.1545 6.94154 75.3455 5.81451C73.8325 3.7066 69.5285 4.25904 66.7354 4.86459Z" fill="white"/>
<path fill-rule="evenodd" clip-rule="evenodd" d="M124.042 14.1287C122.985 14.5136 121.734 14.6332 120.519 14.567C119.039 14.4863 118.648 14.0484 118.608 12.6252C118.568 11.1849 118.821 10.5755 120.317 10.4497C121.369 10.3612 123.106 10.386 124.069 10.6924L124.042 14.1287ZM116.865 4.89334L117.314 6.68467C119 6.36422 120.028 6.08193 121.882 6.25042C123.682 6.41417 124.121 7.28441 124.054 9.06431C122.519 9.00469 120.046 8.33863 118.031 9.1665C116.421 9.8278 115.913 11.7074 116.327 13.7974C116.71 15.7296 118.248 16.2129 120.419 16.2947C122.528 16.3742 124.41 16.0502 126.204 15.413C126.33 13.8567 126.223 11.881 126.223 10.2789C126.223 6.89713 126.354 4.46384 121.651 4.3344C120.309 4.29746 118.032 4.49867 116.865 4.89334Z" fill="white"/>
<path fill-rule="evenodd" clip-rule="evenodd" d="M136.748 30.5025C135.71 30.5985 134.061 30.5547 132.985 30.527C131.699 30.4939 131.156 29.9636 131.169 28.7254C131.182 27.4508 131.786 27.1072 133.086 27.0989C134.256 27.0917 135.561 27.0544 136.743 27.111L136.748 30.5025ZM138.974 25.347C137.852 25.1718 135.282 25.3088 134.007 25.3088C132.475 25.3088 130.821 25.1924 129.814 26.0835C128.345 27.3828 128.412 30.0753 129.99 31.0982C130.254 31.2692 130.533 31.3717 130.842 31.4577C130.998 31.5015 131.156 31.5263 131.336 31.5602C131.39 31.5703 131.542 31.5956 131.581 31.609C131.761 31.6686 131.746 31.6955 131.827 31.7493C130.653 31.9486 130.015 32.9208 129.503 33.7946C129.063 34.5456 128.27 35.8411 128.042 36.6639L130.547 36.6572C130.814 35.6704 131.837 33.917 132.414 33.2575C133.466 32.055 134.824 32.1479 136.738 32.2653C136.771 33.1143 136.611 36.1213 136.829 36.6648L138.972 36.6514L138.974 25.347Z" fill="white"/>
<path fill-rule="evenodd" clip-rule="evenodd" d="M51.0506 34.8031C49.9447 35.1396 48.8128 35.3105 47.5126 35.2356C46.017 35.1493 45.6176 34.6498 45.5898 33.2153C45.5607 31.7177 45.8946 31.2064 47.4353 31.1058C48.5399 31.0337 50.0284 31.072 51.0506 31.3374V34.8031ZM44.3197 27.336C44.9658 27.2632 45.6582 27.0196 46.4623 26.9411C49.9428 26.6015 51.0114 27.0233 51.0482 29.7378C49.1386 29.5793 46.7851 29.0528 44.9803 29.8467C43.4144 30.5358 42.8806 32.367 43.3137 34.4718C43.7124 36.4089 45.217 36.8894 47.4864 36.9647C48.5988 37.0014 52.7711 36.6849 53.2062 35.9481C53.2062 34.2238 53.2062 32.4995 53.2062 30.7751C53.2062 29.1516 53.2574 27.6346 52.4637 26.4107C51.0719 24.2646 44.9446 25.0105 43.8429 25.6085L44.3197 27.336Z" fill="white"/>
<path fill-rule="evenodd" clip-rule="evenodd" d="M136.947 9.86041C133.706 9.86041 131.422 10.4074 131.401 8.13222C131.389 6.72255 132.008 6.43552 133.395 6.432C134.59 6.42883 135.785 6.4327 136.982 6.4327L136.947 9.86041ZM132.186 10.9894C130.888 11.5488 130.647 11.6596 129.775 13.0702C129.435 13.62 128.375 15.4171 128.31 15.9963H130.705C131.321 15.0043 131.498 13.9932 132.587 12.6284C133.613 11.3408 135.007 11.5826 136.94 11.5826L136.987 15.9912L139.168 15.9956L139.206 4.64911C137.553 4.59969 135.852 4.64155 134.212 4.64155C132.541 4.64155 131.179 4.56117 130.026 5.40293C129.205 6.0025 128.74 7.72752 129.164 9.04433C129.586 10.3574 130.61 10.7743 132.186 10.9894Z" fill="white"/>
<path fill-rule="evenodd" clip-rule="evenodd" d="M29.0722 9.02992C29.2329 6.98339 29.8464 6.13671 32.0606 6.09819C34.4001 6.05739 34.8156 6.90248 34.9216 9.02974L29.0722 9.02992ZM36.3376 15.6468C36.3115 15.2567 36.0589 14.2372 35.9163 13.9315C34.5766 14.3133 32.5824 14.6487 31.0977 14.3168C29.4118 13.9398 29.0773 12.5927 29.0426 10.7544L37.1214 10.7519C37.2646 7.64258 36.7242 4.95216 33.7634 4.44633C31.0191 3.97762 27.9455 4.47518 27.0614 7.35484C26.2883 9.8729 26.597 13.7827 28.2965 15.1454C29.2699 15.9258 30.4071 16.2742 32.062 16.3057C33.0665 16.3249 35.5988 16.0561 36.3376 15.6468Z" fill="white"/>
<path fill-rule="evenodd" clip-rule="evenodd" d="M22.5105 29.6973C22.6358 27.649 23.3292 26.7978 25.5235 26.7647C27.8053 26.7304 28.2559 27.6045 28.3536 29.6948L22.5105 29.6973ZM29.3916 34.5961C25.3982 35.4681 22.5633 35.8847 22.4766 31.4244L30.5505 31.3808C30.6549 30.0751 30.4933 28.3617 30.0279 27.2498C28.8563 24.4492 24.7015 24.7051 22.8013 25.44C19.0468 26.892 19.6395 33.9305 21.6494 35.7458C23.547 37.4595 27.113 37.0895 29.8089 36.3443L29.3916 34.5961Z" fill="white"/>
<path fill-rule="evenodd" clip-rule="evenodd" d="M103.869 15.9957L106.062 15.9925L106.095 10.8213L111.626 10.8228L111.632 15.9959L113.822 15.992L113.852 4.66347L111.653 4.63867L111.625 8.99889L106.095 9.00944L106.092 4.65995L103.893 4.63902L103.869 15.9957Z" fill="white"/>
<path fill-rule="evenodd" clip-rule="evenodd" d="M14.1982 15.9909L16.3705 15.9932L16.4001 6.52175H21.9493L21.9577 15.9937L24.1314 15.9923L24.159 4.66886L14.2181 4.6416L14.1982 15.9909Z" fill="white"/>
<path fill-rule="evenodd" clip-rule="evenodd" d="M79.9414 25.3086C80.5884 26.9534 84.4399 36.2829 84.1281 37.3753C84.0247 37.7374 83.4358 38.7829 83.2414 39.1726C82.9801 39.6967 82.5046 40.4479 82.3347 40.9602C85.2406 40.9646 84.6262 41.4114 85.7074 39.1814C87.3942 35.7022 90.4268 28.5675 91.2224 25.3086H88.9288C88.7816 25.9402 86.3044 33.7981 85.5401 34.5218C85.1799 33.0306 84.5592 31.2684 84.0462 29.8085L82.3071 25.3116L79.9414 25.3086Z" fill="white"/>
<path fill-rule="evenodd" clip-rule="evenodd" d="M93.5532 10.6874C94.8139 10.6874 96.0775 10.679 97.3378 10.6869C98.722 10.6955 99.2257 11.1736 99.2019 12.5245C99.1774 13.9196 98.6705 14.2936 97.234 14.2959C95.9993 14.298 94.7644 14.2952 93.5281 14.2952L93.5532 10.6874ZM91.3057 15.9963C93.4473 15.9963 95.545 15.9995 97.6425 15.9969C99.7906 15.994 101.137 15.4471 101.477 13.5523C102.473 7.99841 97.4788 8.96311 93.5298 8.96311L93.5276 4.66058L91.3298 4.63965L91.3057 15.9963Z" fill="white"/>
<path fill-rule="evenodd" clip-rule="evenodd" d="M78.168 15.9961H80.4398C81.2942 14.2814 82.2889 8.61971 82.4581 6.5767L86.1968 6.51831L86.1995 15.9961L88.3905 15.9929L88.4225 4.66032L80.3871 4.64062C80.0608 6.56492 80.1699 7.89966 79.5997 10.592C79.395 11.5583 79.1756 12.4498 78.9302 13.3809C78.7592 14.0301 78.1908 15.517 78.168 15.9961Z" fill="white"/>
<path fill-rule="evenodd" clip-rule="evenodd" d="M69.9594 36.6635C70.313 36.4226 70.6221 34.948 70.7554 34.4606C71.5862 31.4195 71.5741 29.847 72.1175 27.1884H75.8147L75.8164 36.6533L78.0431 36.6635V25.3086L69.9767 25.326C69.8709 27.3829 69.6064 29.3573 69.2023 31.3282C68.7131 33.7153 68.2023 34.8229 67.7568 36.6635H69.9594Z" fill="white"/>
<path fill-rule="evenodd" clip-rule="evenodd" d="M57.4971 36.6634C57.7925 36.5023 57.7084 36.5298 57.8233 36.1579L58.8579 32.175C59.2187 30.4771 59.3774 28.895 59.6678 27.1862L63.3743 27.2221L63.375 36.6634H65.6006V25.3076L57.5348 25.3461C57.417 27.4224 57.1593 29.3514 56.7636 31.3378C56.3126 33.6 55.6728 35.0904 55.3135 36.6634H57.4971Z" fill="white"/>
<path fill-rule="evenodd" clip-rule="evenodd" d="M31.4072 27.1856L35.7907 27.2244V36.663H38.0166C38.0157 34.4021 37.9202 29.1093 38.0347 27.1909L42.3769 27.185V25.3104L31.4072 25.3086V27.1856Z" fill="white"/>
<path fill-rule="evenodd" clip-rule="evenodd" d="M108.422 27.1907L114.103 27.1879L114.107 25.3086H106.204L106.203 36.663H108.406L108.422 27.1907Z" fill="white"/>
<path fill-rule="evenodd" clip-rule="evenodd" d="M172.494 22.6343L172.512 26.2592L177.396 26.2583C177.492 25.3198 177.434 19.2569 177.424 17.7695C177.011 18.0179 173.201 22.1389 172.494 22.6343Z" fill="#4992AF"/>
</svg>
