<svg width="24" height="25" viewBox="0 0 24 25" fill="none" xmlns="http://www.w3.org/2000/svg">
<path d="M12 0C7.58889 0 4 3.73843 4 8.33335C4 9.71274 4.33108 11.0804 4.96047 12.2935L11.5625 24.7314C11.6504 24.8973 11.8179 25 12 25C12.1821 25 12.3496 24.8973 12.4375 24.7314L19.042 12.2894C19.6689 11.0804 20 9.7127 20 8.3333C20 3.73843 16.4111 0 12 0ZM12 12.5C9.79445 12.5 8.00003 10.6308 8.00003 8.33335C8.00003 6.03589 9.79445 4.1667 12 4.1667C14.2056 4.1667 16 6.03589 16 8.33335C16 10.6308 14.2056 12.5 12 12.5Z" fill="#B50024"/>
</svg>
