<svg width="110" height="110" viewBox="0 0 110 110" fill="none" xmlns="http://www.w3.org/2000/svg">
<rect width="110" height="110" fill="#B50024"/>
<path d="M79.6337 46.6792C77.8175 44.8629 74.8623 44.863 73.0455 46.6796C72.4867 47.2389 68.919 50.8094 68.374 51.355V39.05C68.374 37.8057 67.8895 36.636 67.0096 35.7562L62.6179 31.3643C61.7382 30.4845 60.5683 30 59.3241 30H32.6611C30.0926 30 28.0029 32.0897 28.0029 34.6582V78.3418C28.0029 80.9103 30.0926 83 32.6611 83H63.7158C66.2844 83 68.374 80.9103 68.374 78.3418V64.536L79.6336 53.2669C81.4542 51.4465 81.4546 48.4998 79.6337 46.6792ZM59.0577 33.1055C59.3511 33.1055 59.9164 33.0546 60.4221 33.5602L64.8138 37.9521C65.3065 38.4449 65.2687 38.9849 65.2687 39.3164H59.0577V33.1055ZM65.2686 78.3418C65.2686 79.198 64.5721 79.8945 63.7158 79.8945H32.6611C31.805 79.8945 31.1084 79.198 31.1084 78.3418V34.6582C31.1084 33.802 31.805 33.1055 32.6611 33.1055H55.9521V40.8691C55.9521 41.7267 56.6474 42.4219 57.5049 42.4219H65.2686V54.4631C65.2686 54.4631 60.6876 59.048 60.6874 59.0481L58.4925 61.2431C58.3221 61.4135 58.1936 61.6213 58.1174 61.85L55.9214 68.4377C55.7354 68.9957 55.8806 69.6109 56.2965 70.0267C56.713 70.4431 57.3284 70.5876 57.8855 70.4018L64.4732 68.206C64.7019 68.1298 64.9098 68.0013 65.0802 67.8308L65.2686 67.6424V78.3418ZM61.7863 62.3411L63.9822 64.537L63.1434 65.3757L59.8496 66.4736L60.9475 63.1798L61.7863 62.3411ZM66.1776 62.3406L63.9818 60.1447C65.1511 58.9744 70.3443 53.7767 71.4457 52.6744L73.6416 54.8702L66.1776 62.3406ZM77.4373 51.0714L75.8367 52.6734L73.6408 50.4776L75.242 48.875C75.8477 48.2696 76.8326 48.2697 77.438 48.875C78.0432 49.4806 78.0464 50.4622 77.4373 51.0714Z" fill="white"/>
<path d="M57.5039 45.5273H35.7656C34.9081 45.5273 34.2129 46.2226 34.2129 47.0801C34.2129 47.9376 34.9081 48.6328 35.7656 48.6328H57.5039C58.3614 48.6328 59.0566 47.9376 59.0566 47.0801C59.0566 46.2226 58.3614 45.5273 57.5039 45.5273Z" fill="white"/>
<path d="M51.293 51.7383H35.7656C34.9081 51.7383 34.2129 52.4335 34.2129 53.291C34.2129 54.1485 34.9081 54.8438 35.7656 54.8438H51.293C52.1505 54.8438 52.8457 54.1485 52.8457 53.291C52.8457 52.4335 52.1505 51.7383 51.293 51.7383Z" fill="white"/>
<path d="M51.293 57.9492H35.7656C34.9081 57.9492 34.2129 58.6444 34.2129 59.502C34.2129 60.3595 34.9081 61.0547 35.7656 61.0547H51.293C52.1505 61.0547 52.8457 60.3595 52.8457 59.502C52.8457 58.6444 52.1505 57.9492 51.293 57.9492Z" fill="white"/>
<path d="M51.293 64.1602H35.7656C34.9081 64.1602 34.2129 64.8554 34.2129 65.7129C34.2129 66.5704 34.9081 67.2656 35.7656 67.2656H51.293C52.1505 67.2656 52.8457 66.5704 52.8457 65.7129C52.8457 64.8554 52.1505 64.1602 51.293 64.1602Z" fill="white"/>
<path d="M57.5039 73.6836H48.1875C47.33 73.6836 46.6348 74.3788 46.6348 75.2363C46.6348 76.0939 47.33 76.7891 48.1875 76.7891H57.5039C58.3614 76.7891 59.0566 76.0939 59.0566 75.2363C59.0566 74.3788 58.3614 73.6836 57.5039 73.6836Z" fill="white"/>
</svg>
