<svg width="110" height="110" viewBox="0 0 110 110" fill="none" xmlns="http://www.w3.org/2000/svg">
<rect width="110" height="110" fill="#B50024"/>
<path d="M76.3418 61.332H72.2012C69.6326 61.332 67.543 63.4217 67.543 65.9902V79.4473C67.543 80.3048 68.2382 81 69.0957 81H79.4473C80.3048 81 81 80.3048 81 79.4473V65.9902C81 63.4217 78.9103 61.332 76.3418 61.332ZM72.2012 64.4375H76.3418C77.198 64.4375 77.8945 65.1341 77.8945 65.9902V67.543H70.6484V65.9902C70.6484 65.1341 71.345 64.4375 72.2012 64.4375ZM70.6484 77.8945V70.6484H77.8945V77.8945H70.6484Z" fill="white"/>
<path d="M79.6356 37.8526C77.8194 36.0365 74.8641 36.0365 73.0479 37.8526L64.4375 46.4632V38.8691C64.4375 36.3006 62.3478 34.2109 59.7793 34.2109H55.2646C54.4811 33.0432 53.1846 32.247 51.6997 32.1506C51.0256 29.7582 48.8237 28 46.2187 28C43.6138 28 41.4119 29.7582 40.7378 32.1506C39.2529 32.247 37.9564 33.0432 37.1729 34.2109H32.6582C30.0897 34.2109 28 36.3006 28 38.8691V76.3418C28 78.9103 30.0897 81 32.6582 81H59.7793C62.3478 81 64.4375 78.9103 64.4375 76.3418V59.6385L79.6356 44.4404C81.4518 42.6241 81.4518 39.6689 79.6356 37.8526ZM39.4902 36.7988C39.4902 35.9427 40.1868 35.2461 41.043 35.2461H42.0781C42.9356 35.2461 43.6309 34.5509 43.6309 33.6934C43.6309 32.2664 44.7918 31.1055 46.2187 31.1055C47.6457 31.1055 48.8066 32.2664 48.8066 33.6934C48.8066 34.5509 49.5019 35.2461 50.3594 35.2461H51.3945C52.2507 35.2461 52.9473 35.9427 52.9473 36.7988V37.3164H39.4902V36.7988ZM61.332 76.3418C61.332 77.198 60.6355 77.8945 59.7793 77.8945H32.6582C31.802 77.8945 31.1055 77.198 31.1055 76.3418V38.8691C31.1055 38.013 31.802 37.3164 32.6582 37.3164H36.3848V38.8691C36.3848 39.7267 37.08 40.4219 37.9375 40.4219H54.5C55.3575 40.4219 56.0527 39.7267 56.0527 38.8691V37.3164H59.7793C60.6355 37.3164 61.332 38.013 61.332 38.8691V49.5686L52.5529 58.3478C52.4348 58.4658 52.3366 58.602 52.262 58.7513L47.8701 67.5349C47.5712 68.1327 47.6884 68.8547 48.161 69.3273C48.4591 69.6254 48.8565 69.7821 49.2593 69.7821C49.495 69.7821 49.7327 69.7284 49.9533 69.6181L58.737 65.2264C58.8863 65.1518 59.0226 65.0535 59.1405 64.9355L61.332 62.744V76.3418ZM55.4214 63.4121L52.731 64.7573L54.0762 62.067L55.4214 63.4121ZM58.0426 61.6415L55.8467 59.4457L67.5582 47.7342L69.7541 49.9301L58.0426 61.6415ZM71.9499 47.7342L69.7541 45.5383L71.9499 43.3425L74.1458 45.5383L71.9499 47.7342ZM77.4397 42.2445L76.3418 43.3424L74.1459 41.1465L75.2439 40.0485C75.8495 39.443 76.8344 39.4432 77.4398 40.0485C78.0451 40.654 78.0451 41.639 77.4397 42.2445Z" fill="white"/>
<path d="M43.4049 44.1892L38.647 48.947L36.8172 47.117C36.2109 46.5106 35.2277 46.5106 34.6213 47.117C34.0149 47.7234 34.0149 48.7065 34.6213 49.3129L37.5491 52.2407C37.8523 52.5439 38.2497 52.6956 38.647 52.6956C39.0443 52.6956 39.4418 52.5439 39.7449 52.2407L45.6007 46.385C46.2071 45.7788 46.2071 44.7956 45.6007 44.1892C44.9946 43.5828 44.0114 43.5828 43.4049 44.1892Z" fill="white"/>
<path d="M43.4049 54.3784L38.647 59.1362L36.8172 57.3062C36.2109 56.6998 35.2277 56.6998 34.6213 57.3062C34.0149 57.9126 34.0149 58.8957 34.6213 59.5021L37.5491 62.4299C37.8523 62.7331 38.2497 62.8848 38.647 62.8848C39.0443 62.8848 39.4418 62.7331 39.7449 62.4299L45.6007 56.5743C46.2071 55.968 46.2071 54.9848 45.6007 54.3784C44.9946 53.772 44.0114 53.772 43.4049 54.3784Z" fill="white"/>
<path d="M43.2796 65.9276C42.6733 65.3212 41.6901 65.3212 41.0837 65.9276L39.0762 67.935L37.0686 65.9275C36.4624 65.3211 35.4792 65.3211 34.8728 65.9275C34.2664 66.5338 34.2664 67.5169 34.8728 68.1233L36.8803 70.1309L34.8728 72.1385C34.2664 72.7449 34.2664 73.728 34.8728 74.3344C35.176 74.6376 35.5734 74.7891 35.9708 74.7891C36.3682 74.7891 36.7655 74.6376 37.0686 74.3343L39.0762 72.3268L41.0838 74.3344C41.3869 74.6376 41.7843 74.7891 42.1817 74.7891C42.5791 74.7891 42.9765 74.6376 43.2796 74.3343C43.886 73.7279 43.886 72.7448 43.2796 72.1384L41.2721 70.1309L43.2797 68.1233C43.8861 67.517 43.8861 66.5338 43.2796 65.9276Z" fill="white"/>
</svg>
