<svg width="110" height="110" viewBox="0 0 110 110" fill="none" xmlns="http://www.w3.org/2000/svg">
<rect width="110" height="110" fill="#B50024"/>
<g clip-path="url(#clip0)">
<mask id="path-2-outside-1" maskUnits="userSpaceOnUse" x="19" y="29.8813" width="72" height="56" fill="black">
<rect fill="white" x="19" y="29.8813" width="72" height="56"/>
<path d="M89.5608 49.3152L87.7374 46.157C87.3599 45.5032 86.5243 45.2791 85.8699 45.6566C85.216 46.0341 84.9919 46.8702 85.3695 47.5241L87.1929 50.6824C87.2891 50.8489 87.2676 51.0075 87.2463 51.0872C87.225 51.1669 87.1642 51.3151 86.9976 51.4112L82.176 54.195C81.9209 54.3418 81.5941 54.2542 81.447 53.9996L71.7471 37.1993C71.6 36.9445 71.6877 36.6175 71.9425 36.4702L76.764 33.6866C77.0188 33.5397 77.3461 33.627 77.4931 33.8818L79.2174 36.8683C79.595 37.5224 80.4311 37.7464 81.0849 37.3687C81.7388 36.9912 81.9629 36.1551 81.5852 35.5012L79.861 32.5147C78.9602 30.9543 76.9579 30.4175 75.397 31.3185L70.5754 34.1023C69.8428 34.5253 69.336 35.191 69.0975 35.9396H55.4288C53.5097 35.9396 51.7055 36.6869 50.3483 38.0439L48.9478 39.4444C47.7198 39.1517 46.4618 39.0012 45.1966 39.0012H40.9525C40.7404 38.1822 40.2137 37.445 39.4248 36.9895L34.6032 34.2057C33.8472 33.7691 32.9662 33.6534 32.1233 33.8792C31.2802 34.1051 30.5754 34.6459 30.139 35.4018L20.4393 52.2022C20.0029 52.9581 19.8868 53.8388 20.1127 54.6821C20.3385 55.5253 20.8794 56.23 21.6354 56.6664L26.457 59.4501C26.9704 59.7465 27.5314 59.8874 28.0855 59.8874C28.2874 59.8874 28.4882 59.8678 28.6856 59.8312L32.632 63.7777C32.5716 64.0879 32.5403 64.406 32.5403 64.7292C32.5403 66.0429 33.0519 67.2781 33.9809 68.207C34.8703 69.0963 36.0184 69.5725 37.1853 69.6369C37.1674 69.8083 37.1577 69.9814 37.1577 70.1561C37.1577 71.4699 37.6693 72.705 38.5983 73.6339C39.5272 74.5628 40.7623 75.0744 42.076 75.0744C42.1117 75.0744 42.1469 75.0726 42.1825 75.0718C42.1817 75.1074 42.1799 75.1426 42.1799 75.1783C42.1799 76.4921 42.6915 77.7272 43.6205 78.6561C44.5494 79.585 45.7845 80.0966 47.0982 80.0966C47.1339 80.0966 47.1692 80.0949 47.2047 80.094C47.2039 80.1296 47.2021 80.1648 47.2021 80.2005C47.2021 81.5142 47.7137 82.7494 48.6427 83.6783C49.5716 84.6071 50.8067 85.1188 52.1204 85.1188C53.4341 85.1188 54.6693 84.6073 55.5981 83.6783L57.5431 81.7335C58.1133 81.1633 58.5125 80.4863 58.7437 79.7666C59.6077 80.4042 60.6344 80.7232 61.6616 80.7231C62.9209 80.7229 64.1807 80.2436 65.1393 79.2848C65.713 78.7112 66.1268 78.0206 66.36 77.2672C67.1515 77.7847 68.0759 78.063 69.0436 78.063C70.3573 78.063 71.5925 77.5514 72.5214 76.6224C73.2116 75.932 73.671 75.0726 73.8617 74.1375C74.3555 74.301 74.8772 74.3873 75.4125 74.3873C76.7261 74.3873 77.9615 73.8757 78.8903 72.9466C80.8079 71.0289 80.8079 67.9087 78.8903 65.991L75.6994 62.8001L81.5239 56.9756C81.6532 56.9911 81.7835 56.9998 81.9143 56.9998C82.4684 56.9998 83.0295 56.859 83.5427 56.5627L88.3644 53.7791C89.1203 53.3426 89.6611 52.6379 89.8871 51.7947C90.1131 50.9514 89.9972 50.0711 89.5608 49.3152ZM23.0024 54.2985C22.8359 54.2024 22.7752 54.0543 22.7539 53.9745C22.7325 53.8948 22.7111 53.7362 22.8073 53.5695L32.5071 36.7689C32.6032 36.6024 32.7514 36.5417 32.8311 36.5204C32.8651 36.5114 32.9135 36.5022 32.9707 36.5022C33.0476 36.5022 33.1405 36.5187 33.2359 36.5737L38.0575 39.3575C38.3122 39.5046 38.4 39.8316 38.2529 40.0865L28.5532 56.8869C28.4059 57.1416 28.0792 57.2294 27.8242 57.0823L23.0024 54.2985ZM35.2746 64.7291C35.2746 64.1456 35.5018 63.5972 35.9144 63.1846L37.0943 62.0048C37.52 61.5789 38.0793 61.3661 38.6387 61.3661C39.1979 61.3661 39.7573 61.5791 40.183 62.0048C40.5956 62.4174 40.8229 62.9658 40.8229 63.5491C40.8229 64.1325 40.5956 64.681 40.183 65.0934L39.0032 66.2733C38.1516 67.125 36.766 67.1249 35.9144 66.2733C35.5018 65.861 35.2746 65.3125 35.2746 64.7291ZM42.0761 72.3401C41.4926 72.3401 40.9443 72.1129 40.5318 71.7004C40.1192 71.288 39.892 70.7395 39.892 70.1561C39.892 69.5728 40.1192 69.0243 40.5318 68.6118L42.4766 66.667C42.9023 66.2413 43.4616 66.0284 44.0209 66.0284C44.5803 66.0284 45.1396 66.2413 45.5654 66.667C45.978 67.0795 46.2052 67.628 46.2052 68.2114C46.2052 68.7947 45.978 69.3432 45.5654 69.7557L43.6206 71.7004C43.208 72.113 42.6595 72.3401 42.0761 72.3401ZM47.0983 77.3625C46.5148 77.3625 45.9665 77.1353 45.554 76.7228C45.1414 76.3103 44.9142 75.7618 44.9142 75.1785C44.9142 74.5951 45.1414 74.0466 45.554 73.634L47.4988 71.6892C47.9245 71.2635 48.4838 71.0506 49.0431 71.0506C49.6024 71.0506 50.1618 71.2635 50.5876 71.6894C51.0002 72.1018 51.2274 72.6503 51.2274 73.2337C51.2274 73.8171 51.0002 74.3656 50.5876 74.778L48.6428 76.7228C48.2303 77.1353 47.6818 77.3625 47.0983 77.3625ZM55.6098 79.8002L53.6649 81.7451C53.2524 82.1576 52.704 82.3848 52.1205 82.3848C51.537 82.3848 50.9887 82.1576 50.5762 81.7451C50.1636 81.3325 49.9364 80.7842 49.9364 80.2008C49.9364 79.6173 50.1636 79.0689 50.5762 78.6563L52.521 76.7116C52.9467 76.2857 53.506 76.0728 54.0654 76.0728C54.6246 76.0728 55.184 76.2859 55.6098 76.7114C56.4614 77.5629 56.4614 78.9486 55.6098 79.8002ZM76.9572 71.0135C76.5446 71.4261 75.9962 71.6533 75.4127 71.6533C74.8294 71.6533 74.281 71.4261 73.8684 71.0135L60.819 57.9641C60.2851 57.4303 59.4197 57.4302 58.8855 57.9641C58.3516 58.4979 58.3516 59.3636 58.8855 59.8975L70.5882 71.6004C71.0008 72.0128 71.228 72.5613 71.228 73.1447C71.228 73.7281 71.0008 74.2766 70.5882 74.6892C70.1757 75.1016 69.6274 75.3288 69.0439 75.3288C68.4604 75.3288 67.912 75.1016 67.4996 74.6892L53.437 60.6266C52.9031 60.0928 52.0374 60.0928 51.5034 60.6266C50.9695 61.1604 50.9695 62.0261 51.5034 62.56L63.2062 74.2629C63.6188 74.6754 63.846 75.2239 63.846 75.8072C63.846 76.3906 63.6188 76.9391 63.2062 77.3515C62.3547 78.2031 60.9691 78.2034 60.1174 77.3515L57.5436 74.7778C57.54 74.7742 57.5361 74.7712 57.5325 74.7678C56.5479 73.789 55.2491 73.3148 53.9591 73.3425C53.9599 73.3063 53.9617 73.2702 53.9617 73.2337C53.9617 71.92 53.4501 70.6848 52.5211 69.7558C51.5353 68.77 50.2316 68.2924 48.9367 68.3202C48.9376 68.2839 48.9393 68.2479 48.9393 68.2115C48.9393 66.8977 48.4277 65.6626 47.4988 64.7336C46.4206 63.6555 44.9623 63.1837 43.5514 63.3178C43.495 62.0911 42.9906 60.9457 42.1165 60.0715C40.1988 58.1538 37.0784 58.1542 35.1607 60.0715L33.9809 61.2514C33.9795 61.2527 33.9781 61.2542 33.9768 61.2556L30.9409 58.2197L40.458 41.7355H45.1965C45.6608 41.7355 46.1238 41.7601 46.5843 41.808L45.0215 43.3707C44.0925 44.2997 43.5809 45.5349 43.5809 46.8486C43.5809 48.1624 44.0925 49.3975 45.0215 50.3265C45.9804 51.2853 47.24 51.7647 48.4993 51.7647C49.7588 51.7647 51.0184 51.2854 51.9771 50.3265L55.6679 46.6358L76.9571 67.9248C77.8086 68.7763 77.8086 70.162 76.9572 71.0135ZM63.8219 50.9226C65.8114 49.4827 67.0309 47.1591 67.0309 44.6347C67.0309 43.8796 66.4187 43.2675 65.6638 43.2675C64.9088 43.2675 64.2966 43.8796 64.2966 44.6347C64.2966 46.4206 63.3533 48.0495 61.8482 48.949L56.641 43.7418C56.107 43.2079 55.2428 43.194 54.7088 43.7278L50.0437 48.393C49.1921 49.2445 47.8065 49.2444 46.9549 48.393C46.5423 47.9805 46.3151 47.432 46.3151 46.8486C46.3151 46.2653 46.5423 45.7168 46.9549 45.3042L52.2817 39.9774C53.1222 39.1368 54.2399 38.6739 55.4288 38.6739H69.4413L79.079 55.367C79.1018 55.4065 79.1267 55.4441 79.1509 55.4823L73.7663 60.8669L63.8219 50.9226Z"/>
</mask>
<path d="M89.5608 49.3152L87.7374 46.157C87.3599 45.5032 86.5243 45.2791 85.8699 45.6566C85.216 46.0341 84.9919 46.8702 85.3695 47.5241L87.1929 50.6824C87.2891 50.8489 87.2676 51.0075 87.2463 51.0872C87.225 51.1669 87.1642 51.3151 86.9976 51.4112L82.176 54.195C81.9209 54.3418 81.5941 54.2542 81.447 53.9996L71.7471 37.1993C71.6 36.9445 71.6877 36.6175 71.9425 36.4702L76.764 33.6866C77.0188 33.5397 77.3461 33.627 77.4931 33.8818L79.2174 36.8683C79.595 37.5224 80.4311 37.7464 81.0849 37.3687C81.7388 36.9912 81.9629 36.1551 81.5852 35.5012L79.861 32.5147C78.9602 30.9543 76.9579 30.4175 75.397 31.3185L70.5754 34.1023C69.8428 34.5253 69.336 35.191 69.0975 35.9396H55.4288C53.5097 35.9396 51.7055 36.6869 50.3483 38.0439L48.9478 39.4444C47.7198 39.1517 46.4618 39.0012 45.1966 39.0012H40.9525C40.7404 38.1822 40.2137 37.445 39.4248 36.9895L34.6032 34.2057C33.8472 33.7691 32.9662 33.6534 32.1233 33.8792C31.2802 34.1051 30.5754 34.6459 30.139 35.4018L20.4393 52.2022C20.0029 52.9581 19.8868 53.8388 20.1127 54.6821C20.3385 55.5253 20.8794 56.23 21.6354 56.6664L26.457 59.4501C26.9704 59.7465 27.5314 59.8874 28.0855 59.8874C28.2874 59.8874 28.4882 59.8678 28.6856 59.8312L32.632 63.7777C32.5716 64.0879 32.5403 64.406 32.5403 64.7292C32.5403 66.0429 33.0519 67.2781 33.9809 68.207C34.8703 69.0963 36.0184 69.5725 37.1853 69.6369C37.1674 69.8083 37.1577 69.9814 37.1577 70.1561C37.1577 71.4699 37.6693 72.705 38.5983 73.6339C39.5272 74.5628 40.7623 75.0744 42.076 75.0744C42.1117 75.0744 42.1469 75.0726 42.1825 75.0718C42.1817 75.1074 42.1799 75.1426 42.1799 75.1783C42.1799 76.4921 42.6915 77.7272 43.6205 78.6561C44.5494 79.585 45.7845 80.0966 47.0982 80.0966C47.1339 80.0966 47.1692 80.0949 47.2047 80.094C47.2039 80.1296 47.2021 80.1648 47.2021 80.2005C47.2021 81.5142 47.7137 82.7494 48.6427 83.6783C49.5716 84.6071 50.8067 85.1188 52.1204 85.1188C53.4341 85.1188 54.6693 84.6073 55.5981 83.6783L57.5431 81.7335C58.1133 81.1633 58.5125 80.4863 58.7437 79.7666C59.6077 80.4042 60.6344 80.7232 61.6616 80.7231C62.9209 80.7229 64.1807 80.2436 65.1393 79.2848C65.713 78.7112 66.1268 78.0206 66.36 77.2672C67.1515 77.7847 68.0759 78.063 69.0436 78.063C70.3573 78.063 71.5925 77.5514 72.5214 76.6224C73.2116 75.932 73.671 75.0726 73.8617 74.1375C74.3555 74.301 74.8772 74.3873 75.4125 74.3873C76.7261 74.3873 77.9615 73.8757 78.8903 72.9466C80.8079 71.0289 80.8079 67.9087 78.8903 65.991L75.6994 62.8001L81.5239 56.9756C81.6532 56.9911 81.7835 56.9998 81.9143 56.9998C82.4684 56.9998 83.0295 56.859 83.5427 56.5627L88.3644 53.7791C89.1203 53.3426 89.6611 52.6379 89.8871 51.7947C90.1131 50.9514 89.9972 50.0711 89.5608 49.3152ZM23.0024 54.2985C22.8359 54.2024 22.7752 54.0543 22.7539 53.9745C22.7325 53.8948 22.7111 53.7362 22.8073 53.5695L32.5071 36.7689C32.6032 36.6024 32.7514 36.5417 32.8311 36.5204C32.8651 36.5114 32.9135 36.5022 32.9707 36.5022C33.0476 36.5022 33.1405 36.5187 33.2359 36.5737L38.0575 39.3575C38.3122 39.5046 38.4 39.8316 38.2529 40.0865L28.5532 56.8869C28.4059 57.1416 28.0792 57.2294 27.8242 57.0823L23.0024 54.2985ZM35.2746 64.7291C35.2746 64.1456 35.5018 63.5972 35.9144 63.1846L37.0943 62.0048C37.52 61.5789 38.0793 61.3661 38.6387 61.3661C39.1979 61.3661 39.7573 61.5791 40.183 62.0048C40.5956 62.4174 40.8229 62.9658 40.8229 63.5491C40.8229 64.1325 40.5956 64.681 40.183 65.0934L39.0032 66.2733C38.1516 67.125 36.766 67.1249 35.9144 66.2733C35.5018 65.861 35.2746 65.3125 35.2746 64.7291ZM42.0761 72.3401C41.4926 72.3401 40.9443 72.1129 40.5318 71.7004C40.1192 71.288 39.892 70.7395 39.892 70.1561C39.892 69.5728 40.1192 69.0243 40.5318 68.6118L42.4766 66.667C42.9023 66.2413 43.4616 66.0284 44.0209 66.0284C44.5803 66.0284 45.1396 66.2413 45.5654 66.667C45.978 67.0795 46.2052 67.628 46.2052 68.2114C46.2052 68.7947 45.978 69.3432 45.5654 69.7557L43.6206 71.7004C43.208 72.113 42.6595 72.3401 42.0761 72.3401ZM47.0983 77.3625C46.5148 77.3625 45.9665 77.1353 45.554 76.7228C45.1414 76.3103 44.9142 75.7618 44.9142 75.1785C44.9142 74.5951 45.1414 74.0466 45.554 73.634L47.4988 71.6892C47.9245 71.2635 48.4838 71.0506 49.0431 71.0506C49.6024 71.0506 50.1618 71.2635 50.5876 71.6894C51.0002 72.1018 51.2274 72.6503 51.2274 73.2337C51.2274 73.8171 51.0002 74.3656 50.5876 74.778L48.6428 76.7228C48.2303 77.1353 47.6818 77.3625 47.0983 77.3625ZM55.6098 79.8002L53.6649 81.7451C53.2524 82.1576 52.704 82.3848 52.1205 82.3848C51.537 82.3848 50.9887 82.1576 50.5762 81.7451C50.1636 81.3325 49.9364 80.7842 49.9364 80.2008C49.9364 79.6173 50.1636 79.0689 50.5762 78.6563L52.521 76.7116C52.9467 76.2857 53.506 76.0728 54.0654 76.0728C54.6246 76.0728 55.184 76.2859 55.6098 76.7114C56.4614 77.5629 56.4614 78.9486 55.6098 79.8002ZM76.9572 71.0135C76.5446 71.4261 75.9962 71.6533 75.4127 71.6533C74.8294 71.6533 74.281 71.4261 73.8684 71.0135L60.819 57.9641C60.2851 57.4303 59.4197 57.4302 58.8855 57.9641C58.3516 58.4979 58.3516 59.3636 58.8855 59.8975L70.5882 71.6004C71.0008 72.0128 71.228 72.5613 71.228 73.1447C71.228 73.7281 71.0008 74.2766 70.5882 74.6892C70.1757 75.1016 69.6274 75.3288 69.0439 75.3288C68.4604 75.3288 67.912 75.1016 67.4996 74.6892L53.437 60.6266C52.9031 60.0928 52.0374 60.0928 51.5034 60.6266C50.9695 61.1604 50.9695 62.0261 51.5034 62.56L63.2062 74.2629C63.6188 74.6754 63.846 75.2239 63.846 75.8072C63.846 76.3906 63.6188 76.9391 63.2062 77.3515C62.3547 78.2031 60.9691 78.2034 60.1174 77.3515L57.5436 74.7778C57.54 74.7742 57.5361 74.7712 57.5325 74.7678C56.5479 73.789 55.2491 73.3148 53.9591 73.3425C53.9599 73.3063 53.9617 73.2702 53.9617 73.2337C53.9617 71.92 53.4501 70.6848 52.5211 69.7558C51.5353 68.77 50.2316 68.2924 48.9367 68.3202C48.9376 68.2839 48.9393 68.2479 48.9393 68.2115C48.9393 66.8977 48.4277 65.6626 47.4988 64.7336C46.4206 63.6555 44.9623 63.1837 43.5514 63.3178C43.495 62.0911 42.9906 60.9457 42.1165 60.0715C40.1988 58.1538 37.0784 58.1542 35.1607 60.0715L33.9809 61.2514C33.9795 61.2527 33.9781 61.2542 33.9768 61.2556L30.9409 58.2197L40.458 41.7355H45.1965C45.6608 41.7355 46.1238 41.7601 46.5843 41.808L45.0215 43.3707C44.0925 44.2997 43.5809 45.5349 43.5809 46.8486C43.5809 48.1624 44.0925 49.3975 45.0215 50.3265C45.9804 51.2853 47.24 51.7647 48.4993 51.7647C49.7588 51.7647 51.0184 51.2854 51.9771 50.3265L55.6679 46.6358L76.9571 67.9248C77.8086 68.7763 77.8086 70.162 76.9572 71.0135ZM63.8219 50.9226C65.8114 49.4827 67.0309 47.1591 67.0309 44.6347C67.0309 43.8796 66.4187 43.2675 65.6638 43.2675C64.9088 43.2675 64.2966 43.8796 64.2966 44.6347C64.2966 46.4206 63.3533 48.0495 61.8482 48.949L56.641 43.7418C56.107 43.2079 55.2428 43.194 54.7088 43.7278L50.0437 48.393C49.1921 49.2445 47.8065 49.2444 46.9549 48.393C46.5423 47.9805 46.3151 47.432 46.3151 46.8486C46.3151 46.2653 46.5423 45.7168 46.9549 45.3042L52.2817 39.9774C53.1222 39.1368 54.2399 38.6739 55.4288 38.6739H69.4413L79.079 55.367C79.1018 55.4065 79.1267 55.4441 79.1509 55.4823L73.7663 60.8669L63.8219 50.9226Z" fill="white"/>
<path d="M89.5608 49.3152L87.7374 46.157C87.3599 45.5032 86.5243 45.2791 85.8699 45.6566C85.216 46.0341 84.9919 46.8702 85.3695 47.5241L87.1929 50.6824C87.2891 50.8489 87.2676 51.0075 87.2463 51.0872C87.225 51.1669 87.1642 51.3151 86.9976 51.4112L82.176 54.195C81.9209 54.3418 81.5941 54.2542 81.447 53.9996L71.7471 37.1993C71.6 36.9445 71.6877 36.6175 71.9425 36.4702L76.764 33.6866C77.0188 33.5397 77.3461 33.627 77.4931 33.8818L79.2174 36.8683C79.595 37.5224 80.4311 37.7464 81.0849 37.3687C81.7388 36.9912 81.9629 36.1551 81.5852 35.5012L79.861 32.5147C78.9602 30.9543 76.9579 30.4175 75.397 31.3185L70.5754 34.1023C69.8428 34.5253 69.336 35.191 69.0975 35.9396H55.4288C53.5097 35.9396 51.7055 36.6869 50.3483 38.0439L48.9478 39.4444C47.7198 39.1517 46.4618 39.0012 45.1966 39.0012H40.9525C40.7404 38.1822 40.2137 37.445 39.4248 36.9895L34.6032 34.2057C33.8472 33.7691 32.9662 33.6534 32.1233 33.8792C31.2802 34.1051 30.5754 34.6459 30.139 35.4018L20.4393 52.2022C20.0029 52.9581 19.8868 53.8388 20.1127 54.6821C20.3385 55.5253 20.8794 56.23 21.6354 56.6664L26.457 59.4501C26.9704 59.7465 27.5314 59.8874 28.0855 59.8874C28.2874 59.8874 28.4882 59.8678 28.6856 59.8312L32.632 63.7777C32.5716 64.0879 32.5403 64.406 32.5403 64.7292C32.5403 66.0429 33.0519 67.2781 33.9809 68.207C34.8703 69.0963 36.0184 69.5725 37.1853 69.6369C37.1674 69.8083 37.1577 69.9814 37.1577 70.1561C37.1577 71.4699 37.6693 72.705 38.5983 73.6339C39.5272 74.5628 40.7623 75.0744 42.076 75.0744C42.1117 75.0744 42.1469 75.0726 42.1825 75.0718C42.1817 75.1074 42.1799 75.1426 42.1799 75.1783C42.1799 76.4921 42.6915 77.7272 43.6205 78.6561C44.5494 79.585 45.7845 80.0966 47.0982 80.0966C47.1339 80.0966 47.1692 80.0949 47.2047 80.094C47.2039 80.1296 47.2021 80.1648 47.2021 80.2005C47.2021 81.5142 47.7137 82.7494 48.6427 83.6783C49.5716 84.6071 50.8067 85.1188 52.1204 85.1188C53.4341 85.1188 54.6693 84.6073 55.5981 83.6783L57.5431 81.7335C58.1133 81.1633 58.5125 80.4863 58.7437 79.7666C59.6077 80.4042 60.6344 80.7232 61.6616 80.7231C62.9209 80.7229 64.1807 80.2436 65.1393 79.2848C65.713 78.7112 66.1268 78.0206 66.36 77.2672C67.1515 77.7847 68.0759 78.063 69.0436 78.063C70.3573 78.063 71.5925 77.5514 72.5214 76.6224C73.2116 75.932 73.671 75.0726 73.8617 74.1375C74.3555 74.301 74.8772 74.3873 75.4125 74.3873C76.7261 74.3873 77.9615 73.8757 78.8903 72.9466C80.8079 71.0289 80.8079 67.9087 78.8903 65.991L75.6994 62.8001L81.5239 56.9756C81.6532 56.9911 81.7835 56.9998 81.9143 56.9998C82.4684 56.9998 83.0295 56.859 83.5427 56.5627L88.3644 53.7791C89.1203 53.3426 89.6611 52.6379 89.8871 51.7947C90.1131 50.9514 89.9972 50.0711 89.5608 49.3152ZM23.0024 54.2985C22.8359 54.2024 22.7752 54.0543 22.7539 53.9745C22.7325 53.8948 22.7111 53.7362 22.8073 53.5695L32.5071 36.7689C32.6032 36.6024 32.7514 36.5417 32.8311 36.5204C32.8651 36.5114 32.9135 36.5022 32.9707 36.5022C33.0476 36.5022 33.1405 36.5187 33.2359 36.5737L38.0575 39.3575C38.3122 39.5046 38.4 39.8316 38.2529 40.0865L28.5532 56.8869C28.4059 57.1416 28.0792 57.2294 27.8242 57.0823L23.0024 54.2985ZM35.2746 64.7291C35.2746 64.1456 35.5018 63.5972 35.9144 63.1846L37.0943 62.0048C37.52 61.5789 38.0793 61.3661 38.6387 61.3661C39.1979 61.3661 39.7573 61.5791 40.183 62.0048C40.5956 62.4174 40.8229 62.9658 40.8229 63.5491C40.8229 64.1325 40.5956 64.681 40.183 65.0934L39.0032 66.2733C38.1516 67.125 36.766 67.1249 35.9144 66.2733C35.5018 65.861 35.2746 65.3125 35.2746 64.7291ZM42.0761 72.3401C41.4926 72.3401 40.9443 72.1129 40.5318 71.7004C40.1192 71.288 39.892 70.7395 39.892 70.1561C39.892 69.5728 40.1192 69.0243 40.5318 68.6118L42.4766 66.667C42.9023 66.2413 43.4616 66.0284 44.0209 66.0284C44.5803 66.0284 45.1396 66.2413 45.5654 66.667C45.978 67.0795 46.2052 67.628 46.2052 68.2114C46.2052 68.7947 45.978 69.3432 45.5654 69.7557L43.6206 71.7004C43.208 72.113 42.6595 72.3401 42.0761 72.3401ZM47.0983 77.3625C46.5148 77.3625 45.9665 77.1353 45.554 76.7228C45.1414 76.3103 44.9142 75.7618 44.9142 75.1785C44.9142 74.5951 45.1414 74.0466 45.554 73.634L47.4988 71.6892C47.9245 71.2635 48.4838 71.0506 49.0431 71.0506C49.6024 71.0506 50.1618 71.2635 50.5876 71.6894C51.0002 72.1018 51.2274 72.6503 51.2274 73.2337C51.2274 73.8171 51.0002 74.3656 50.5876 74.778L48.6428 76.7228C48.2303 77.1353 47.6818 77.3625 47.0983 77.3625ZM55.6098 79.8002L53.6649 81.7451C53.2524 82.1576 52.704 82.3848 52.1205 82.3848C51.537 82.3848 50.9887 82.1576 50.5762 81.7451C50.1636 81.3325 49.9364 80.7842 49.9364 80.2008C49.9364 79.6173 50.1636 79.0689 50.5762 78.6563L52.521 76.7116C52.9467 76.2857 53.506 76.0728 54.0654 76.0728C54.6246 76.0728 55.184 76.2859 55.6098 76.7114C56.4614 77.5629 56.4614 78.9486 55.6098 79.8002ZM76.9572 71.0135C76.5446 71.4261 75.9962 71.6533 75.4127 71.6533C74.8294 71.6533 74.281 71.4261 73.8684 71.0135L60.819 57.9641C60.2851 57.4303 59.4197 57.4302 58.8855 57.9641C58.3516 58.4979 58.3516 59.3636 58.8855 59.8975L70.5882 71.6004C71.0008 72.0128 71.228 72.5613 71.228 73.1447C71.228 73.7281 71.0008 74.2766 70.5882 74.6892C70.1757 75.1016 69.6274 75.3288 69.0439 75.3288C68.4604 75.3288 67.912 75.1016 67.4996 74.6892L53.437 60.6266C52.9031 60.0928 52.0374 60.0928 51.5034 60.6266C50.9695 61.1604 50.9695 62.0261 51.5034 62.56L63.2062 74.2629C63.6188 74.6754 63.846 75.2239 63.846 75.8072C63.846 76.3906 63.6188 76.9391 63.2062 77.3515C62.3547 78.2031 60.9691 78.2034 60.1174 77.3515L57.5436 74.7778C57.54 74.7742 57.5361 74.7712 57.5325 74.7678C56.5479 73.789 55.2491 73.3148 53.9591 73.3425C53.9599 73.3063 53.9617 73.2702 53.9617 73.2337C53.9617 71.92 53.4501 70.6848 52.5211 69.7558C51.5353 68.77 50.2316 68.2924 48.9367 68.3202C48.9376 68.2839 48.9393 68.2479 48.9393 68.2115C48.9393 66.8977 48.4277 65.6626 47.4988 64.7336C46.4206 63.6555 44.9623 63.1837 43.5514 63.3178C43.495 62.0911 42.9906 60.9457 42.1165 60.0715C40.1988 58.1538 37.0784 58.1542 35.1607 60.0715L33.9809 61.2514C33.9795 61.2527 33.9781 61.2542 33.9768 61.2556L30.9409 58.2197L40.458 41.7355H45.1965C45.6608 41.7355 46.1238 41.7601 46.5843 41.808L45.0215 43.3707C44.0925 44.2997 43.5809 45.5349 43.5809 46.8486C43.5809 48.1624 44.0925 49.3975 45.0215 50.3265C45.9804 51.2853 47.24 51.7647 48.4993 51.7647C49.7588 51.7647 51.0184 51.2854 51.9771 50.3265L55.6679 46.6358L76.9571 67.9248C77.8086 68.7763 77.8086 70.162 76.9572 71.0135ZM63.8219 50.9226C65.8114 49.4827 67.0309 47.1591 67.0309 44.6347C67.0309 43.8796 66.4187 43.2675 65.6638 43.2675C64.9088 43.2675 64.2966 43.8796 64.2966 44.6347C64.2966 46.4206 63.3533 48.0495 61.8482 48.949L56.641 43.7418C56.107 43.2079 55.2428 43.194 54.7088 43.7278L50.0437 48.393C49.1921 49.2445 47.8065 49.2444 46.9549 48.393C46.5423 47.9805 46.3151 47.432 46.3151 46.8486C46.3151 46.2653 46.5423 45.7168 46.9549 45.3042L52.2817 39.9774C53.1222 39.1368 54.2399 38.6739 55.4288 38.6739H69.4413L79.079 55.367C79.1018 55.4065 79.1267 55.4441 79.1509 55.4823L73.7663 60.8669L63.8219 50.9226Z" stroke="white" stroke-width="0.2" mask="url(#path-2-outside-1)"/>
<path d="M84.4796 40.5102L84.4794 40.51L82.5109 42.48L82.4756 42.5154C82.4756 42.5154 82.4756 42.5154 82.4756 42.5154C82.7392 42.7792 83.1033 42.9306 83.4775 42.9306C83.8505 42.9306 84.2145 42.779 84.4794 42.5155L84.4796 42.5153C84.743 42.2504 84.8947 41.8864 84.8947 41.5134C84.8947 41.1392 84.7431 40.7752 84.4796 40.5102Z" fill="white" stroke="white" stroke-width="0.1"/>
</g>
<defs>
<clipPath id="clip0">
<rect width="70" height="70" fill="white" transform="translate(20 23)"/>
</clipPath>
</defs>
</svg>
