<svg width="82" height="75" viewBox="0 0 82 75" fill="none" xmlns="http://www.w3.org/2000/svg">
<rect x="20.3452" y="30.2766" width="32.9669" height="10.2473" rx="5.12363" transform="rotate(-60 20.3452 30.2766)" fill="#C4C4C4"/>
<rect x="20.3452" y="30.2766" width="32.9669" height="10.2473" rx="5.12363" transform="rotate(-60 20.3452 30.2766)" fill="url(#paint0_linear)"/>
<path d="M50.8791 5.39112L80.2271 57.9812L80.6211 59.5569V64.678L76.6817 67.6325L72.9394 65.6629L41.8187 8.93652C40.2596 6.75846 39.4016 6.36902 37.8794 6.17899C35.6178 6.12356 34.7834 6.68212 33.3491 7.7547C34.3854 5.87747 34.8813 4.14534 36.5 2.50004C38.5054 1.16732 39.63 0.640708 41.5 0.500031C43.8164 0.325772 45.0316 1.09111 46.7428 1.84572C48.2941 2.68382 49.1959 3.40106 50.8791 5.39112Z" fill="url(#paint1_linear)"/>
<path d="M71.3637 63.2992L30.1977 38.6784L23.6979 39.4663L20.5464 44.5874L68.0153 73.3445C70.2506 73.9431 71.5184 74.2609 74.5152 73.9354C76.4907 73.2212 77.605 72.7249 79.6363 70.784C80.8168 69.3509 81.5034 68.6188 81.9999 65.0719C81.7589 61.3309 81.2834 59.969 80.2272 57.9812C80.2743 61.603 80.0007 63.246 78.0606 64.2841C75.1865 65.3194 73.7705 64.8284 71.3637 63.2992Z" fill="#9D6363"/>
<path d="M71.3637 63.2992L30.1977 38.6784L23.6979 39.4663L20.5464 44.5874L68.0153 73.3445C70.2506 73.9431 71.5184 74.2609 74.5152 73.9354C76.4907 73.2212 77.605 72.7249 79.6363 70.784C80.8168 69.3509 81.5034 68.6188 81.9999 65.0719C81.7589 61.3309 81.2834 59.969 80.2272 57.9812C80.2743 61.603 80.0007 63.246 78.0606 64.2841C75.1865 65.3194 73.7705 64.8284 71.3637 63.2992Z" fill="url(#paint2_linear)"/>
<path d="M15.4252 40.0572L0.455753 67.0416C-0.379479 69.6777 -0.285687 71.1232 2.62238 73.5415C5.79866 74.3384 7.35865 74.0355 9.51621 71.3749C14.5717 62.1831 24.9978 43.3268 26.2584 41.436C27.5189 39.5451 30.9856 39.7289 32.5613 40.0572C33.0209 40.3198 32.6401 40.0966 27.4402 37.1027C22.2402 34.1088 17.2636 37.8249 15.4252 40.0572Z" fill="#C4C4C4"/>
<path d="M15.4252 40.0572L0.455753 67.0416C-0.379479 69.6777 -0.285687 71.1232 2.62238 73.5415C5.79866 74.3384 7.35865 74.0355 9.51621 71.3749C14.5717 62.1831 24.9978 43.3268 26.2584 41.436C27.5189 39.5451 30.9856 39.7289 32.5613 40.0572C33.0209 40.3198 32.6401 40.0966 27.4402 37.1027C22.2402 34.1088 17.2636 37.8249 15.4252 40.0572Z" fill="url(#paint3_linear)"/>
<defs>
<linearGradient id="paint0_linear" x1="25.6686" y1="44.8766" x2="50.3491" y2="36.2136" gradientUnits="userSpaceOnUse">
<stop stop-color="#DF002C"/>
<stop offset="1" stop-color="#88001B"/>
</linearGradient>
<linearGradient id="paint1_linear" x1="57.1201" y1="1.05783" x2="59.0898" y2="60.7387" gradientUnits="userSpaceOnUse">
<stop stop-color="#DF002C"/>
<stop offset="1" stop-color="#88001B"/>
</linearGradient>
<linearGradient id="paint2_linear" x1="79.9683" y1="72.1627" x2="28.1423" y2="37.3607" gradientUnits="userSpaceOnUse">
<stop stop-color="#DF002C"/>
<stop offset="1" stop-color="#88001B"/>
</linearGradient>
<linearGradient id="paint3_linear" x1="24.2269" y1="36.1179" x2="26.5487" y2="72.5445" gradientUnits="userSpaceOnUse">
<stop stop-color="#DF002C"/>
<stop offset="1" stop-color="#88001B"/>
</linearGradient>
</defs>
</svg>
