<svg width="22" height="22" viewBox="0 0 22 22" fill="none" xmlns="http://www.w3.org/2000/svg">
<path d="M0.459541 4.08873C3.47896 6.64585 8.77709 11.1446 10.3343 12.5473C10.5433 12.7366 10.7675 12.8329 11.0003 12.8329C11.2326 12.8329 11.4564 12.7375 11.665 12.5491C13.2235 11.145 18.5216 6.64585 21.5411 4.08873C21.7291 3.92984 21.7577 3.65054 21.6055 3.45628C21.2537 3.00738 20.7291 2.75 20.1669 2.75H1.83364C1.27148 2.75 0.746873 3.00738 0.395088 3.45632C0.242893 3.65054 0.271553 3.92984 0.459541 4.08873Z" fill="#B50024"/>
<path d="M21.7342 5.47449C21.5717 5.39887 21.3806 5.42525 21.2454 5.54075C17.8969 8.37935 13.6233 12.0179 12.2788 13.2295C11.5241 13.9107 10.4767 13.9107 9.7203 13.2285C8.28712 11.9373 3.48803 7.85745 0.754617 5.54071C0.618535 5.42521 0.42698 5.39973 0.265848 5.47445C0.103855 5.54969 0 5.71172 0 5.8903V17.4167C0 18.4278 0.822207 19.25 1.83335 19.25H20.1667C21.1778 19.25 22 18.4278 22 17.4167V5.8903C22 5.71172 21.8961 5.54926 21.7342 5.47449Z" fill="#B50024"/>
</svg>
