<svg width="116" height="215" viewBox="0 0 116 215" fill="transparent" xmlns="http://www.w3.org/2000/svg">
<path id="mask-1" d="M57.513 214.919L7.72691 128.687L107.299 128.687L57.513 214.919Z" fill="#88001B"/>
<rect id="mask-2" x="79.4082" y="0.682129" width="144.478" height="44.4547" transform="rotate(90 79.4082 0.682129)" fill="#88001B"/>
<path  d="M63.582 154.94L63.582 157.038L47.8396 157.038L47.8396 153.19L57.0854 153.19L47.8396 145.13L47.8396 143.235L63.582 143.235L63.582 147.084L54.5243 147.084L63.582 154.94ZM56.9118 136.594L54.0903 136.594L54.0903 135.812C54.0903 135.282 53.9649 134.819 53.7141 134.423C53.4633 134.028 53.0581 133.83 52.4987 133.83C52.0164 133.83 51.6209 134.008 51.3122 134.365C50.9939 134.713 50.8347 135.142 50.8347 135.653C50.8347 136.299 51.1482 137.11 51.7752 138.084L49.055 139.647C47.9746 138.286 47.4345 136.772 47.4345 135.103C47.4345 133.569 47.8348 132.301 48.6354 131.298C49.4264 130.285 50.4971 129.779 51.8475 129.779C53.2173 129.779 54.3266 130.512 55.1755 131.978C55.8989 130.02 57.206 129.041 59.0966 129.041C60.5049 129.041 61.6721 129.59 62.5981 130.69C63.5242 131.79 63.9872 133.309 63.9872 135.248C63.9872 137.38 63.3891 139.14 62.193 140.529L59.4439 138.344C60.1384 137.409 60.4856 136.521 60.4856 135.682C60.4856 135.007 60.3265 134.471 60.0081 134.076C59.6802 133.68 59.2606 133.483 58.7493 133.483C58.2574 133.483 57.8281 133.671 57.4616 134.047C57.095 134.413 56.9118 134.92 56.9118 135.566L56.9118 136.594ZM63.582 123.846L66.3167 123.846L66.3167 127.362L60.2397 127.362L60.2397 124.989L47.8396 119.563L47.8396 117.017L60.2397 111.518L60.2397 109.102L66.3167 109.102L66.3167 112.864L63.582 112.864L63.582 123.846ZM60.2397 115.715L53.6128 118.29L60.2397 120.952L60.2397 115.715ZM56.8539 90.8131L56.8539 103.503C57.9728 103.319 58.8651 102.832 59.5307 102.041C60.1866 101.241 60.5146 100.223 60.5146 98.9882C60.5146 97.5123 59.9985 96.2439 58.9664 95.1828L60.529 91.8549C61.7059 92.6845 62.5788 93.678 63.148 94.8355C63.7074 95.9931 63.9872 97.3676 63.9872 98.9593C63.9872 101.429 63.2107 103.44 61.6576 104.993C60.095 106.546 58.1416 107.322 55.7976 107.322C53.3957 107.322 51.4038 106.551 49.8219 105.007C48.2303 103.454 47.4345 101.511 47.4345 99.1763C47.4345 96.6972 48.2303 94.6812 49.8219 93.1282C51.4038 91.5752 53.497 90.7987 56.1015 90.7987L56.8539 90.8131ZM53.743 94.7777C52.8652 95.0381 52.1514 95.5542 51.6016 96.3259C51.0517 97.0879 50.7768 97.9754 50.7768 98.9882C50.7768 100.088 51.0855 101.052 51.7029 101.882C52.0887 102.403 52.7688 102.885 53.743 103.329L53.743 94.7777ZM47.8396 83.6798L49.5759 83.6798C48.8621 82.966 48.3267 82.1943 47.9698 81.3648C47.6129 80.5352 47.4345 79.6478 47.4345 78.7024C47.4345 76.6478 48.211 74.9019 49.764 73.4646C51.317 72.0273 53.3089 71.3087 55.7397 71.3087C58.0838 71.3087 60.0467 72.0515 61.6287 73.537C63.201 75.0225 63.9872 76.7829 63.9872 78.8182C63.9872 79.7249 63.828 80.569 63.5097 81.3503C63.1817 82.1316 62.6512 82.9081 61.9181 83.6798L69.3407 83.6798L69.3407 87.601L47.8396 87.601L47.8396 83.6798ZM51.0807 79.5272C51.0807 80.7715 51.5051 81.8037 52.354 82.6236C53.2028 83.4435 54.3121 83.8535 55.6819 83.8535C57.0806 83.8535 58.214 83.4435 59.0821 82.6236C59.9406 81.8037 60.3699 80.7715 60.3699 79.5272C60.3699 78.3214 59.931 77.3086 59.0532 76.4887C58.1754 75.6591 57.0564 75.2443 55.6963 75.2443C54.3459 75.2443 53.2414 75.6495 52.3829 76.4597C51.5148 77.27 51.0807 78.2925 51.0807 79.5272ZM58.5178 60.0662L58.0259 60.4858L63.582 65.1738L63.582 70.4116L55.5082 63.3073L47.8396 70.3248L47.8396 65.5066L53.7285 60.0662L47.8396 60.0662L47.8396 56.1161L53.7285 56.1161L47.8396 50.6902L47.8396 45.8575L55.5082 52.875L63.582 45.7707L63.582 51.0085L58.0259 55.6965L58.5178 56.1161L63.582 56.1161L63.582 60.0662L58.5178 60.0662ZM47.8396 44.1356L47.8396 40.1856L53.7285 40.1856L47.8396 34.7452L47.8396 29.9269L55.5082 36.9445L63.582 29.8401L63.582 35.078L58.0259 39.766L58.5178 40.1856L63.582 40.1856L63.582 44.1356L47.8396 44.1356ZM63.582 26.136L63.582 28.2341L47.8396 28.2341L47.8396 24.3853L57.0854 24.3853L47.8396 16.326L47.8396 14.4305L63.582 14.4305L63.582 18.2793L54.5243 18.2793L63.582 26.136Z" fill="white"/>
</svg>
