<svg width="108" height="108" viewBox="0 0 108 108" fill="none" xmlns="http://www.w3.org/2000/svg">
<g clip-path="url(#clip0)">
<path d="M72.1406 69.4531C69.5883 69.4531 67.5 67.6389 67.5 65.3978C67.5 63.1567 69.5883 61.3425 72.1406 61.3425C74.693 61.3425 76.7812 63.1567 76.7812 65.3978C76.7812 66.5717 77.7305 67.5322 78.8906 67.5322C80.0508 67.5322 81 66.5717 81 65.3978C81 61.4919 78.1102 58.2049 74.25 57.3085V56.1986C74.25 55.0247 73.3008 54.0642 72.1406 54.0642C70.9805 54.0642 70.0312 55.0247 70.0312 56.1986V57.3085C66.1711 58.2049 63.2812 61.4919 63.2812 65.3978C63.2812 69.9867 67.2469 73.7219 72.1406 73.7219C74.693 73.7219 76.7812 75.5361 76.7812 77.7773C76.7812 80.0184 74.693 81.8326 72.1406 81.8326C69.5883 81.8326 67.5 80.0184 67.5 77.7773C67.5 76.6033 66.5508 75.6429 65.3906 75.6429C64.2305 75.6429 63.2812 76.6033 63.2812 77.7773C63.2812 81.6832 66.1711 84.9701 70.0312 85.8666V86.7844C70.0312 87.9583 70.9805 88.9188 72.1406 88.9188C73.3008 88.9188 74.25 87.9583 74.25 86.7844V85.8666C78.1102 84.9701 81 81.6832 81 77.7773C81 73.1883 77.0133 69.4531 72.1406 69.4531Z" fill="#88001B"/>
<path d="M95.2382 56.7535C92.4749 52.3993 88.5937 48.9416 84.0163 46.7005C82.9616 46.1883 81.696 46.6365 81.2109 47.7037C80.7046 48.7709 81.1476 50.0515 82.2023 50.5424C90.1757 54.427 95.3437 62.7511 95.3437 71.7156C95.3437 75.5575 94.4156 79.3567 92.6437 82.729C92.0952 83.7748 92.496 85.0555 93.5085 85.6104C93.8249 85.7812 94.1624 85.8665 94.4999 85.8665C95.2593 85.8665 95.9765 85.461 96.3562 84.7353C98.4445 80.7654 99.5624 76.2618 99.5624 71.7156C99.5624 66.3796 98.0648 61.2144 95.2382 56.7535Z" fill="#88001B"/>
<path d="M75.4523 43.9685H75.3047C74.1445 43.9685 73.1953 44.929 73.1953 46.1029C73.1953 47.2768 74.1445 48.2373 75.3047 48.2373H75.4313C76.5914 48.2373 77.5406 47.2982 77.5406 46.1029C77.5617 44.929 76.6125 43.9685 75.4523 43.9685Z" fill="#88001B"/>
<path d="M62.1 92.8887C54.1055 89.0041 48.9375 80.68 48.9375 71.7156C48.9375 67.8737 49.8656 64.0745 51.6375 60.7021C52.1859 59.6563 51.7852 58.3756 50.7727 57.8207C49.7391 57.2658 48.4734 57.6713 47.925 58.6958C45.8367 62.6658 44.7188 67.1693 44.7188 71.7156C44.7188 77.0515 46.2164 82.2168 49.043 86.6776C51.8063 91.0318 55.6875 94.4895 60.2648 96.7306C60.5602 96.88 60.8766 96.944 61.1719 96.944C61.9523 96.944 62.7117 96.4958 63.0703 95.7274C63.5977 94.6816 63.1547 93.4009 62.1 92.8887Z" fill="#88001B"/>
<path d="M68.9767 95.1937H68.8501C67.6899 95.1937 66.7407 96.1329 66.7407 97.3281C66.7407 98.502 67.6688 99.4625 68.8501 99.4625H68.9978C70.1579 99.4625 71.1071 98.502 71.1071 97.3281C71.1071 96.1542 70.1368 95.1937 68.9767 95.1937Z" fill="#88001B"/>
<path d="M81.7172 36.7543C81.4641 36.1353 81.1477 35.559 80.7891 35.0041H86.2734C91.6312 35.0041 95.9766 30.6072 95.9766 25.1859C95.9766 19.7645 91.6312 15.3677 86.2734 15.3677H69.3773C70.4531 13.7883 71.0859 11.8673 71.0859 9.8183C71.0859 4.39696 66.7406 0.00012207 61.3828 0.00012207H9.70312C4.34531 0.00012207 0 4.39696 0 9.8183C0 15.2396 4.34531 19.6365 9.70312 19.6365H26.5992C25.5234 21.2159 24.8906 23.1369 24.8906 25.1859C24.8906 27.2349 25.5234 29.1559 26.5992 30.7353H21.0938C15.7359 30.7353 11.3906 35.1321 11.3906 40.5535C11.3906 43.6697 12.825 46.4444 15.0609 48.2373C12.825 50.0302 11.3906 52.8049 11.3906 55.9211C11.3906 59.0373 12.825 61.812 15.0609 63.6049C12.825 65.3978 11.3906 68.1725 11.3906 71.2887C11.3906 74.4049 12.825 77.1796 15.0609 78.9725C12.825 80.7653 11.3906 83.54 11.3906 86.6562C11.3906 92.0776 15.7359 96.4744 21.0938 96.4744H45.9633C52.5023 103.561 61.8258 108 72.1617 108C91.9266 108 108.021 91.7147 108.021 71.7155C108 55.0673 96.8625 41.0017 81.7172 36.7543ZM86.2734 19.6365C89.2898 19.6365 91.7578 22.1337 91.7578 25.1859C91.7578 28.2381 89.2898 30.7353 86.2734 30.7353H72.7734H34.5938C31.5773 30.7353 29.1094 28.2381 29.1094 25.1859C29.1094 22.1337 31.5773 19.6365 34.5938 19.6365H86.2734ZM9.70312 15.3677C6.68672 15.3677 4.21875 12.8705 4.21875 9.8183C4.21875 6.76613 6.68672 4.2689 9.70312 4.2689H61.3828C64.3992 4.2689 66.8672 6.76613 66.8672 9.8183C66.8672 12.8705 64.3992 15.3677 61.3828 15.3677H9.70312ZM21.0938 35.0041H72.7734C73.6172 35.0041 74.4398 35.1962 75.157 35.559C74.1656 35.4736 73.1531 35.431 72.1406 35.431C62.2477 35.431 53.2617 39.5076 46.7648 46.1029H21.0938C18.0773 46.1029 15.6094 43.6057 15.6094 40.5535C15.6094 37.5013 18.0773 35.0041 21.0938 35.0041ZM21.0938 50.3717H43.1578C40.7531 53.7013 38.918 57.4365 37.7367 61.4705H21.0938C18.0773 61.4705 15.6094 58.9732 15.6094 55.9211C15.6094 52.8689 18.0773 50.3717 21.0938 50.3717ZM21.0938 65.7393H36.7664C36.45 67.6815 36.2812 69.6879 36.2812 71.7155C36.2812 73.4444 36.4078 75.1732 36.6398 76.8381H21.0938C18.0773 76.8381 15.6094 74.3408 15.6094 71.2887C15.6094 68.2365 18.0773 65.7393 21.0938 65.7393ZM21.0938 92.2057C18.0773 92.2057 15.6094 89.7084 15.6094 86.6562C15.6094 83.6041 18.0773 81.1068 21.0938 81.1068H37.5047C38.5594 85.1195 40.2891 88.8547 42.5672 92.2057H21.0938ZM72.1406 103.731C54.6961 103.731 40.5 89.3669 40.5 71.7155C40.5 54.0642 54.6961 39.6997 72.1406 39.6997C89.5852 39.6997 103.781 54.0642 103.781 71.7155C103.781 89.3669 89.5852 103.731 72.1406 103.731Z" fill="#88001B"/>
</g>
<defs>
<clipPath id="clip0">
<rect y="0.00012207" width="108" height="108" fill="white"/>
</clipPath>
</defs>
</svg>
