<svg width="106" height="106" viewBox="0 0 106 106" fill="none" xmlns="http://www.w3.org/2000/svg">
<path d="M95.6484 9.10938H85.773V6.21094C85.773 2.79492 82.9781 0 79.5621 0C76.1461 0 73.3512 2.79492 73.3512 6.21094V9.10938H38.5699V6.21094C38.5699 2.79492 35.775 0 32.359 0C28.943 0 26.148 2.79492 26.148 6.21094V9.19219C25.9824 9.15078 25.7961 9.10938 25.5891 9.10938H17.3492C11.6352 9.10938 6.99766 13.7469 6.99766 19.4609V54.7184C6.99766 55.857 7.9293 56.7887 9.06797 56.7887C10.2066 56.7887 11.1383 55.857 11.1383 54.7184V30.4336H85.773C86.9117 30.4336 87.8434 29.502 87.8434 28.3633C87.8434 27.2246 86.9117 26.293 85.773 26.293H11.1383V19.4609C11.1383 16.0449 13.9332 13.25 17.3492 13.25H25.5891C25.7754 13.25 25.9617 13.2293 26.148 13.1672V15.8379C26.148 19.2539 28.943 22.0488 32.359 22.0488C35.775 22.0488 38.5699 19.2539 38.5699 15.8379V13.25H73.3512V15.8379C73.3512 19.2539 76.1461 22.0488 79.5621 22.0488C82.9781 22.0488 85.773 19.2539 85.773 15.8379V13.25H95.6484C99.0645 13.25 101.859 16.0449 101.859 19.4609V98.1328C101.859 100.182 100.182 101.859 98.1328 101.859C96.0832 101.859 94.4062 100.182 94.4062 98.1328V92.7707C94.4062 91.632 93.4746 90.7004 92.3359 90.7004H68.2582C67.1195 90.7004 66.1879 91.632 66.1879 92.7707C66.1879 93.9094 67.1195 94.841 68.2582 94.841H90.2656V98.1328C90.2656 99.4785 90.5969 100.741 91.1973 101.859H7.86719C5.81758 101.859 4.14062 100.182 4.14062 98.1328V94.841H50.4742C51.6129 94.841 52.5445 93.9094 52.5445 92.7707C52.5445 91.632 51.6129 90.7004 50.4742 90.7004H29.7918C33.4148 87.5949 35.7129 82.9781 35.7129 77.8438C35.7129 68.4859 28.0941 60.8672 18.7363 60.8672C9.37852 60.8672 1.75977 68.4859 1.75977 77.8438C1.75977 82.9781 4.05781 87.5949 7.68086 90.7004H2.07031C0.931641 90.7004 0 91.632 0 92.7707V98.1328C0 102.48 3.51953 106 7.86719 106H98.1328C102.48 106 106 102.48 106 98.1328V19.4609C106 13.7469 101.363 9.10938 95.6484 9.10938ZM34.4293 15.8379C34.4293 16.9766 33.4977 17.9082 32.359 17.9082C31.2203 17.9082 30.2887 16.9766 30.2887 15.8379V6.21094C30.2887 5.07227 31.2203 4.14062 32.359 4.14062C33.4977 4.14062 34.4293 5.07227 34.4293 6.21094V15.8379ZM81.6324 15.8379C81.6324 16.9766 80.7008 17.9082 79.5621 17.9082C78.4234 17.9082 77.4918 16.9766 77.4918 15.8379V6.21094C77.4918 5.07227 78.4234 4.14062 79.5621 4.14062C80.7008 4.14062 81.6324 5.07227 81.6324 6.21094V15.8379ZM5.90039 77.8438C5.90039 70.7633 11.6559 65.0078 18.7363 65.0078C25.8168 65.0078 31.5723 70.7633 31.5723 77.8438C31.5723 84.9242 25.8168 90.6797 18.7363 90.6797C11.6559 90.6797 5.90039 84.9242 5.90039 77.8438Z" fill="#88001B"/>
<path d="M96.9528 26.8934C96.5595 26.5 96.0419 26.293 95.4829 26.293C94.9446 26.293 94.4063 26.5207 94.013 26.8934C93.6196 27.2867 93.4126 27.8043 93.4126 28.3633C93.4126 28.9223 93.6403 29.4398 94.013 29.8332C94.3856 30.2266 94.9239 30.4336 95.4829 30.4336C96.0212 30.4336 96.5595 30.2059 96.9528 29.8332C97.3462 29.4398 97.5532 28.9223 97.5532 28.3633C97.5532 27.8043 97.3462 27.2867 96.9528 26.8934Z" fill="#88001B"/>
<path d="M61.8195 91.3007C61.4262 90.9073 60.9086 90.7003 60.3496 90.7003C59.7906 90.7003 59.273 90.9281 58.8797 91.3007C58.4863 91.6941 58.2793 92.2116 58.2793 92.7706C58.2793 93.3089 58.507 93.8472 58.8797 94.2406C59.273 94.6339 59.7906 94.8409 60.3496 94.8409C60.9086 94.8409 61.4262 94.6132 61.8195 94.2406C62.2129 93.8472 62.4199 93.3089 62.4199 92.7706C62.4406 92.2323 62.2129 91.6941 61.8195 91.3007Z" fill="#88001B"/>
<path d="M46.8304 62.9375C42.4828 62.9375 38.9633 66.457 38.9633 70.8047C38.9633 75.1523 42.4828 78.6719 46.8304 78.6719C51.1781 78.6719 54.6976 75.1523 54.6976 70.8047C54.6976 66.457 51.1781 62.9375 46.8304 62.9375ZM46.8304 74.5312C44.7808 74.5312 43.1039 72.8543 43.1039 70.8047C43.1039 68.7551 44.7808 67.0781 46.8304 67.0781C48.8801 67.0781 50.557 68.7551 50.557 70.8047C50.557 72.8543 48.9008 74.5312 46.8304 74.5312Z" fill="#88001B"/>
<path d="M66.1672 62.9375C61.8196 62.9375 58.3 66.457 58.3 70.8047C58.3 75.1523 61.8196 78.6719 66.1672 78.6719C70.5149 78.6719 74.0344 75.1523 74.0344 70.8047C74.0344 66.457 70.4942 62.9375 66.1672 62.9375ZM66.1672 74.5312C64.1176 74.5312 62.4407 72.8543 62.4407 70.8047C62.4407 68.7551 64.1176 67.0781 66.1672 67.0781C68.2168 67.0781 69.8938 68.7551 69.8938 70.8047C69.8938 72.8543 68.2168 74.5312 66.1672 74.5312Z" fill="#88001B"/>
<path d="M85.4832 62.9375C81.1355 62.9375 77.616 66.457 77.616 70.8047C77.616 75.1523 81.1355 78.6719 85.4832 78.6719C89.8308 78.6719 93.3503 75.1523 93.3503 70.8047C93.3503 66.457 89.8308 62.9375 85.4832 62.9375ZM85.4832 74.5312C83.4335 74.5312 81.7566 72.8543 81.7566 70.8047C81.7566 68.7551 83.4335 67.0781 85.4832 67.0781C87.5328 67.0781 89.2097 68.7551 89.2097 70.8047C89.2097 72.8543 87.5328 74.5312 85.4832 74.5312Z" fill="#88001B"/>
<path d="M27.5144 41.4062C23.1667 41.4062 19.6472 44.9258 19.6472 49.2734C19.6472 53.6211 23.1667 57.1406 27.5144 57.1406C31.8621 57.1406 35.3816 53.6211 35.3816 49.2734C35.3816 44.9258 31.8621 41.4062 27.5144 41.4062ZM27.5144 53C25.4648 53 23.7878 51.323 23.7878 49.2734C23.7878 47.2238 25.4648 45.5469 27.5144 45.5469C29.564 45.5469 31.241 47.2238 31.241 49.2734C31.241 51.323 29.564 53 27.5144 53Z" fill="#88001B"/>
<path d="M66.1672 41.4062C61.8196 41.4062 58.3 44.9258 58.3 49.2734C58.3 53.6211 61.8196 57.1406 66.1672 57.1406C70.5149 57.1406 74.0344 53.6211 74.0344 49.2734C74.0344 44.9258 70.4942 41.4062 66.1672 41.4062ZM66.1672 53C64.1176 53 62.4407 51.323 62.4407 49.2734C62.4407 47.2238 64.1176 45.5469 66.1672 45.5469C68.2168 45.5469 69.8938 47.2238 69.8938 49.2734C69.8938 51.323 68.2168 53 66.1672 53Z" fill="#88001B"/>
<path d="M85.4832 41.4062C81.1355 41.4062 77.616 44.9258 77.616 49.2734C77.616 53.6211 81.1355 57.1406 85.4832 57.1406C89.8308 57.1406 93.3503 53.6211 93.3503 49.2734C93.3503 44.9258 89.8308 41.4062 85.4832 41.4062ZM85.4832 53C83.4335 53 81.7566 51.323 81.7566 49.2734C81.7566 47.2238 83.4335 45.5469 85.4832 45.5469C87.5328 45.5469 89.2097 47.2238 89.2097 49.2734C89.2097 51.323 87.5328 53 85.4832 53Z" fill="#88001B"/>
<path d="M46.8304 41.4062C42.4828 41.4062 38.9633 44.9258 38.9633 49.2734C38.9633 53.6211 42.4828 57.1406 46.8304 57.1406C51.1781 57.1406 54.6976 53.6211 54.6976 49.2734C54.6976 44.9258 51.1781 41.4062 46.8304 41.4062ZM46.8304 53C44.7808 53 43.1039 51.323 43.1039 49.2734C43.1039 47.2238 44.7808 45.5469 46.8304 45.5469C48.8801 45.5469 50.557 47.2238 50.557 49.2734C50.557 51.323 48.9008 53 46.8304 53Z" fill="#88001B"/>
<path d="M26.1066 72.7922C25.2992 71.9848 23.9949 71.9848 23.1875 72.7922L16.4382 79.5414L14.1402 77.2434C13.3328 76.436 12.0285 76.436 11.221 77.2434C10.4136 78.0508 10.4136 79.3551 11.221 80.1625L14.989 83.9305C15.3824 84.3239 15.9 84.5309 16.4589 84.5309C17.0179 84.5309 17.5355 84.3032 17.9289 83.9305L26.1273 75.7321C26.914 74.9246 26.914 73.5996 26.1066 72.7922Z" fill="#88001B"/>
</svg>
